<?xml version="1.0" standalone="no"?>
<!DOCTYPE svg PUBLIC "-//W3C//DTD SVG 20010904//EN"
 "http://www.w3.org/TR/2001/REC-SVG-20010904/DTD/svg10.dtd">
<svg version="1.0" xmlns="http://www.w3.org/2000/svg"
 width="1280.000000pt" height="720.000000pt" viewBox="0 0 1280.000000 720.000000"
 preserveAspectRatio="xMidYMid meet">
<metadata>
Created by potrace 1.16, written by Peter Selinger 2001-2019
</metadata>
<g transform="translate(0.000000,720.000000) scale(0.100000,-0.100000)"
fill="#000000" stroke="none">
<path d="M9271 7113 c8 -10 17 -20 20 -23 3 -3 11 -20 17 -39 10 -28 9 -37 -3
-51 -12 -14 -13 -19 -1 -35 13 -18 42 -13 30 6 -3 5 -10 7 -15 4 -17 -11 -9
10 9 26 17 15 20 15 30 0 8 -12 13 -13 19 -4 7 9 13 8 23 -7 8 -11 20 -20 28
-20 24 0 25 -30 2 -48 -20 -16 -21 -19 -7 -25 12 -4 17 -1 18 11 0 14 2 14 6
2 15 -38 39 -55 78 -55 54 0 139 -45 114 -60 -8 -5 -10 -4 -5 3 4 7 1 12 -8
12 -20 0 -29 -17 -14 -26 7 -4 25 -7 40 -6 20 2 26 -2 22 -12 -7 -18 15 -31
29 -17 8 8 8 11 -2 11 -8 0 -10 7 -6 22 6 17 4 20 -9 15 -9 -4 -16 -2 -16 4 0
5 7 12 16 16 22 8 57 -36 42 -54 -8 -10 -6 -13 5 -13 8 0 18 6 20 13 4 10 6
10 6 0 1 -18 21 -16 21 1 0 9 7 12 19 9 12 -3 17 -11 14 -20 -5 -12 -7 -12
-14 -1 -7 10 -9 9 -9 -4 0 -10 -6 -18 -14 -18 -8 0 -17 -4 -21 -9 -3 -6 12
-10 33 -9 22 0 48 -5 59 -11 18 -9 42 -12 93 -11 46 1 273 -18 310 -25 14 -3
59 -6 100 -6 41 -1 81 -6 88 -11 6 -6 12 -8 12 -4 0 3 15 0 34 -8 22 -9 38
-11 47 -4 12 8 11 9 -1 5 -8 -2 -22 3 -30 12 -23 24 -58 41 -72 36 -15 -6 -42
31 -33 45 3 5 13 7 23 4 15 -5 15 -4 1 5 -22 14 -51 7 -63 -15 -16 -29 -27
-33 -54 -23 -14 6 -38 7 -54 4 -19 -5 -28 -3 -28 5 0 10 -4 9 -15 0 -12 -10
-15 -9 -15 5 0 10 -6 15 -17 13 -10 -2 -17 -10 -16 -16 2 -7 -2 -12 -7 -12 -6
0 -10 7 -10 15 0 8 -2 15 -4 15 -2 0 -20 -7 -39 -15 -43 -18 -67 -19 -67 -4 0
6 7 9 15 6 8 -4 17 -2 20 3 4 6 -7 10 -24 10 -17 0 -31 -5 -31 -11 0 -5 -5 -7
-10 -4 -7 4 -6 13 1 26 13 26 5 36 -16 19 -9 -7 -19 -9 -23 -5 -4 4 -1 10 6
12 9 4 2 12 -18 24 -17 11 -35 17 -41 14 -5 -4 -9 -1 -9 4 0 6 5 11 10 11 6 0
10 5 10 11 0 7 -7 8 -17 4 -10 -4 -26 -8 -36 -10 -9 -2 -22 -7 -29 -11 -8 -5
-9 2 -4 26 3 19 3 31 0 27 -4 -3 -15 -2 -25 3 -12 7 -20 7 -24 0 -5 -8 -11 -7
-21 1 -11 9 -14 8 -14 -5 0 -9 -7 -16 -15 -16 -11 0 -13 8 -8 30 5 30 -10 43
-21 18 -3 -7 -3 -1 0 14 5 24 3 26 -18 21 -12 -3 -32 -13 -42 -22 -18 -15 -19
-15 -13 2 4 9 2 17 -4 17 -6 0 -8 7 -5 16 4 12 1 14 -14 9 -14 -5 -20 -2 -20
10 0 15 -1 15 -16 1 -29 -30 -55 -18 -83 36 -11 21 -17 25 -27 17 -9 -7 -15
-5 -22 8 -5 10 -8 24 -6 31 1 7 0 8 -2 3 -3 -5 -14 -7 -24 -4 -13 4 -20 0 -20
-10 0 -17 -27 -31 -35 -17 -3 5 -1 11 3 14 12 7 14 76 3 76 -5 0 -7 -10 -4
-21 4 -16 2 -20 -8 -17 -8 3 -12 13 -11 23 3 15 1 17 -10 7 -11 -9 -19 -8 -34
3 -26 20 -39 19 -23 -2z"/>
<path d="M7527 6863 c3 -27 9 -50 12 -53 3 -3 7 -14 9 -25 2 -11 6 -35 9 -52
3 -18 8 -33 12 -33 14 0 11 -58 -4 -70 -19 -16 -20 -50 -1 -50 8 0 18 9 21 20
6 18 25 29 25 14 0 -3 29 -115 65 -247 64 -242 107 -427 150 -652 42 -217 74
-365 85 -385 6 -11 20 -25 32 -31 19 -10 24 -9 36 10 15 22 54 29 49 9 -1 -7
5 -13 13 -13 11 0 15 17 18 68 4 80 -5 97 -57 97 -28 0 -45 9 -77 38 -36 34
-42 46 -48 96 -8 59 2 86 30 86 8 0 14 9 14 20 0 13 -7 20 -19 20 -36 0 -59
34 -84 125 -14 50 -28 106 -32 125 -14 73 -86 396 -95 425 -12 38 -17 161 -7
172 4 4 17 2 27 -5 11 -7 22 -12 25 -12 3 0 -13 34 -35 76 -22 42 -40 84 -40
94 0 10 -4 22 -10 25 -5 3 -10 19 -10 34 0 28 -21 57 -33 45 -3 -4 -12 6 -19
22 -14 32 -36 53 -55 54 -9 0 -11 -13 -6 -47z"/>
<path d="M12082 6816 c-29 -17 -42 -31 -20 -23 10 3 19 0 22 -10 5 -12 1 -14
-19 -11 -13 3 -22 2 -20 -3 6 -9 -54 -24 -62 -15 -10 10 19 36 40 36 15 0 18
3 10 11 -8 8 -17 8 -33 -1 -12 -6 -28 -9 -36 -6 -9 3 -14 -1 -14 -13 0 -10
-12 -23 -26 -30 -25 -11 -26 -11 -19 21 4 25 3 29 -5 16 -5 -9 -23 -19 -39
-23 -16 -3 -32 -14 -36 -23 -6 -16 -7 -16 -16 0 -8 15 -12 15 -36 3 -14 -8
-29 -18 -32 -23 -3 -5 -21 -13 -38 -17 -36 -7 -41 2 -21 35 7 10 8 23 4 27 -5
4 -11 2 -14 -6 -2 -7 -13 -22 -23 -32 -11 -11 -14 -19 -8 -19 5 0 7 -4 4 -10
-3 -5 -17 -10 -31 -10 -21 0 -24 3 -18 25 8 33 -2 32 -33 -5 -29 -34 -44 -37
-73 -12 -26 22 -66 26 -49 5 10 -11 8 -12 -13 -4 -13 5 -31 5 -38 1 -8 -5 -33
-7 -57 -4 -25 2 -43 -1 -43 -6 0 -6 -12 -2 -27 7 -26 17 -27 17 -20 0 5 -14 0
-17 -31 -19 -20 0 -49 -2 -64 -2 -16 -1 -28 1 -28 5 0 4 -11 9 -25 11 -32 7
-31 -2 1 -26 22 -15 32 -17 63 -8 20 5 81 8 136 5 131 -6 122 -6 255 1 162 9
231 15 241 22 9 5 34 8 146 19 34 3 68 7 75 10 7 3 45 8 83 11 157 12 173 17
166 58 -1 5 4 13 11 17 9 6 4 9 -14 9 -16 0 -28 5 -28 10 0 6 -5 10 -11 10 -6
0 -8 -7 -5 -17 4 -9 1 -20 -6 -25 -21 -13 -31 -9 -18 7 7 8 9 15 5 15 -4 0
-13 -8 -20 -17 -12 -16 -14 -16 -30 0 -14 15 -20 15 -33 5 -13 -11 -14 -10 -8
10 4 12 6 22 4 21 -2 -1 -13 -7 -26 -13z"/>
<path d="M7046 6758 c3 -13 10 -24 14 -26 4 -2 4 -18 0 -36 -8 -37 1 -63 19
-52 6 4 11 2 11 -3 0 -6 -7 -11 -15 -11 -22 0 -20 -50 3 -51 10 0 12 -3 5 -6
-19 -7 -16 -60 3 -67 25 -10 36 -7 28 7 -5 8 -2 8 9 -2 18 -14 23 -26 8 -17
-5 3 -12 -1 -15 -10 -3 -8 -2 -12 4 -9 9 5 15 -23 11 -47 0 -5 2 -8 7 -8 33 1
35 50 7 191 -15 71 -26 103 -49 132 -33 42 -62 50 -50 15z"/>
<path d="M8637 6644 c-3 -4 -42 -8 -86 -9 -83 -4 -121 -16 -121 -40 0 -7 -6
-16 -12 -19 -7 -3 34 -3 92 1 58 3 177 0 265 -6 214 -16 237 -19 287 -36 24
-8 73 -15 111 -17 37 -1 67 -6 67 -11 0 -4 4 -6 9 -3 5 4 30 -3 56 -14 49 -21
90 -26 80 -10 -3 5 -22 12 -43 15 -20 4 -49 13 -65 21 -15 8 -49 17 -75 20
-62 7 -97 12 -97 14 0 1 -11 2 -25 4 -15 1 -37 12 -50 24 -18 16 -26 19 -30
10 -6 -15 -40 -20 -40 -6 0 6 -7 8 -15 4 -8 -3 -15 -1 -15 4 0 5 -15 9 -33 8
-18 -1 -41 4 -52 9 -11 6 -31 10 -45 9 -14 -1 -29 0 -35 3 -5 3 -19 5 -30 6
-11 0 -19 6 -17 13 1 6 -5 12 -14 12 -10 0 -14 -6 -10 -15 3 -9 0 -15 -10 -15
-8 0 -17 7 -20 15 -6 16 -17 19 -27 9z"/>
<path d="M7286 6418 c-7 -28 13 -135 30 -163 13 -21 8 -75 -7 -75 -5 0 -9 -4
-9 -10 0 -5 7 -10 15 -10 8 0 15 -9 15 -20 0 -10 8 -24 18 -29 9 -6 11 -11 5
-11 -7 0 -13 -7 -13 -15 0 -20 -17 -19 -28 1 -6 11 -11 13 -16 5 -4 -6 -2 -11
4 -11 7 0 6 -8 -4 -21 -13 -18 -12 -23 2 -39 8 -11 19 -17 24 -14 4 3 8 0 8
-5 0 -6 -4 -11 -10 -11 -5 0 -10 -14 -10 -31 0 -21 4 -30 13 -27 6 3 21 -4 32
-15 11 -11 14 -17 7 -12 -20 11 -62 -33 -62 -64 0 -20 2 -23 10 -11 8 13 12
11 26 -9 13 -18 18 -20 25 -10 7 11 10 9 15 -8 3 -12 15 -23 28 -25 14 -2 24
-14 31 -35 5 -18 15 -33 23 -33 7 0 12 -6 11 -12 -3 -29 2 -38 23 -35 17 1 24
-4 26 -20 3 -21 -6 -28 -30 -24 -5 0 -8 -4 -8 -9 0 -6 5 -10 10 -10 7 0 7 -6
0 -19 -15 -29 -12 -56 9 -75 17 -16 19 -15 25 15 3 17 6 53 6 80 0 41 7 59 43
112 23 34 57 75 75 90 17 16 32 37 32 47 0 11 -37 64 -82 120 -74 90 -148 199
-164 240 -3 8 -10 24 -15 35 -5 11 -13 33 -19 49 -11 30 -91 144 -101 145 -4
1 -9 -9 -13 -21z"/>
<path d="M12355 6419 c-20 -20 -55 -22 -120 -6 -11 2 -26 0 -32 -6 -9 -6 -13
-6 -13 2 0 6 -5 11 -11 11 -6 0 -9 -7 -5 -15 6 -16 -30 -30 -69 -27 -11 0 -22
-3 -25 -8 -3 -5 -27 -11 -54 -14 -26 -3 -59 -12 -72 -21 -13 -8 -24 -11 -24
-5 0 5 -12 10 -27 10 -22 0 -25 -2 -13 -10 13 -8 13 -10 -2 -10 -9 0 -29 -5
-45 -12 -15 -6 -32 -12 -37 -12 -9 -1 -22 -26 -13 -26 2 0 17 4 33 9 65 21 84
22 84 6 0 -9 -13 -29 -30 -45 -18 -17 -25 -30 -17 -33 7 -2 2 -9 -12 -16 -14
-8 -21 -9 -17 -2 4 6 4 11 1 11 -10 0 -49 -22 -63 -37 -19 -19 -2 -16 20 4 17
15 18 15 12 -18 -4 -19 -11 -38 -15 -44 -13 -14 -11 -27 4 -18 12 8 26 11 62
16 29 4 46 17 39 28 -10 16 19 67 46 80 21 10 22 13 8 16 -23 6 -23 9 5 39 40
43 178 76 325 77 69 1 126 -3 130 -8 4 -6 27 -10 52 -9 25 0 67 -3 94 -8 27
-4 83 -11 125 -14 42 -3 84 -7 95 -11 12 -3 17 -1 14 8 -6 17 -49 29 -64 17
-7 -5 -18 -3 -27 7 -9 8 -20 15 -25 15 -6 0 -12 6 -15 13 -6 15 -42 16 -54 3
-5 -5 4 -6 20 -4 18 4 27 1 27 -8 0 -8 -7 -14 -16 -14 -27 0 -94 23 -94 32 0
4 -8 8 -17 8 -15 0 -14 4 6 19 16 12 20 21 12 25 -6 4 -11 2 -11 -5 0 -6 -8
-9 -20 -6 -11 3 -26 0 -33 -7 -19 -19 -61 -13 -66 10 -3 17 -19 34 -31 33 -3
0 -14 -9 -25 -20z"/>
<path d="M8842 6368 c3 -7 18 -15 34 -19 28 -5 28 -5 7 -13 -13 -4 -28 -4 -35
1 -7 4 -22 9 -33 10 -11 2 -32 8 -48 14 -20 8 -31 8 -40 0 -8 -6 -17 -8 -20
-4 -4 3 -15 -2 -26 -11 -18 -17 -20 -16 -26 4 -7 21 -8 21 -26 4 -11 -10 -28
-18 -38 -19 -10 -1 -31 -13 -46 -28 -26 -24 -53 -28 -40 -6 4 5 1 9 -4 9 -16
0 -13 -26 4 -40 11 -10 18 -9 30 4 9 9 25 16 35 16 10 0 22 5 25 10 12 19 201
1 284 -27 42 -14 81 -26 86 -27 39 -9 101 -29 105 -35 3 -4 32 -17 65 -30 33
-12 81 -34 107 -47 27 -13 54 -24 60 -24 7 0 26 -7 42 -15 15 -8 32 -12 37 -9
5 3 9 1 9 -4 0 -5 30 -20 68 -32 75 -25 119 -50 89 -50 -9 0 -17 -4 -17 -9 0
-12 29 -23 41 -16 5 4 6 -1 3 -9 -9 -23 26 -34 38 -13 10 19 29 22 45 6 16
-16 4 -47 -21 -52 -20 -3 -20 -4 -1 -11 11 -4 28 -12 39 -17 13 -7 16 -7 11 0
-3 6 -1 11 4 11 6 0 11 -5 11 -12 0 -6 3 -8 7 -5 3 4 13 2 20 -5 8 -7 23 -12
34 -13 15 -1 18 3 13 18 -5 15 -3 19 9 14 9 -3 17 -1 19 4 2 5 13 11 25 12 12
0 19 5 17 9 -3 5 -10 6 -15 3 -5 -4 -9 -2 -9 3 0 6 7 12 15 16 8 3 12 12 9 20
-3 8 -11 13 -17 10 -7 -2 -25 7 -42 21 -24 19 -27 26 -16 34 21 14 4 33 -18
20 -13 -9 -25 -8 -49 5 -18 9 -32 22 -32 29 0 8 -4 7 -10 -3 -8 -12 -11 -12
-27 2 -17 16 -22 18 -43 18 -5 0 -10 6 -10 13 0 18 -50 42 -50 24 0 -6 -5 -4
-11 6 -5 9 -16 17 -24 17 -8 0 -20 8 -27 18 -17 22 -46 22 -63 -1 -11 -15 -13
-16 -19 -2 -3 8 -15 15 -27 15 -12 0 -28 8 -35 18 -9 12 -13 13 -14 3 0 -7 -6
-11 -15 -7 -9 3 -15 0 -15 -9 0 -8 -4 -15 -10 -15 -5 0 -10 5 -10 10 0 6 -7
10 -15 10 -8 0 -15 5 -15 11 0 6 -8 8 -19 4 -23 -7 -91 47 -92 74 0 9 -3 11
-6 4 -6 -15 -43 5 -43 23 0 7 -9 14 -21 17 -15 4 -19 2 -15 -9 6 -16 -5 -12
-39 15 -18 15 -19 15 -7 -1 12 -15 11 -16 -15 -7 -58 19 -63 22 -63 40 0 22
-10 24 -29 7 -11 -10 -13 -10 -7 0 5 8 0 12 -14 12 -13 0 -20 -5 -18 -12z"/>
<path d="M7537 6273 c-3 -3 -3 -11 0 -19 3 -8 0 -21 -7 -30 -10 -11 -10 -18
-2 -26 7 -7 12 -20 12 -30 0 -10 5 -18 11 -18 7 0 9 -9 6 -22 -5 -16 2 -30 24
-50 16 -16 28 -32 25 -37 -3 -4 4 -15 15 -25 20 -17 21 -17 14 3 -4 15 -2 21
9 21 12 0 13 -6 6 -30 -8 -27 -6 -30 15 -30 24 0 43 39 24 51 -7 4 -5 11 5 21
15 16 13 66 -5 100 -5 9 -9 28 -9 42 0 14 -4 28 -10 31 -5 3 -11 16 -11 28 -1
17 -2 18 -6 5 -2 -10 -10 -18 -18 -18 -7 0 -12 -6 -11 -12 0 -7 -3 -13 -9 -13
-5 0 -10 7 -9 17 0 10 -6 15 -18 13 -10 -2 -18 2 -18 10 0 14 -24 27 -33 18z"/>
<path d="M8652 6078 c3 -25 -22 -33 -30 -9 -3 9 0 11 9 6 10 -6 11 -5 3 4 -6
6 -18 9 -27 5 -13 -5 -14 -9 -4 -25 10 -17 9 -22 -5 -30 -31 -17 -20 -27 32
-27 28 -1 54 -3 59 -7 5 -3 12 -1 15 3 8 13 87 13 113 0 25 -12 51 -5 60 17 8
22 -13 43 -28 28 -15 -15 -49 -5 -42 13 3 8 0 14 -6 14 -6 0 -11 -7 -11 -16 0
-12 -3 -14 -12 -6 -7 5 -31 13 -53 16 -22 4 -43 13 -48 21 -12 23 -29 18 -25
-7z"/>
<path d="M12382 6085 c-19 -10 -20 -14 -8 -18 9 -4 16 -12 16 -19 0 -9 13 -12
45 -10 28 3 45 0 45 -7 0 -6 -6 -11 -12 -12 -7 0 0 -6 16 -13 31 -14 66 -10
66 7 0 6 7 2 15 -9 8 -10 15 -14 15 -8 0 7 11 14 25 17 14 2 23 2 20 -1 -2 -3
7 -11 22 -19 23 -12 27 -11 40 7 15 22 39 28 27 8 -5 -10 -4 -10 6 -1 11 10
16 9 27 -5 13 -15 13 -15 7 8 -4 14 -18 36 -32 48 -20 19 -22 26 -11 33 11 7
11 9 1 9 -8 0 -16 -9 -19 -20 -6 -23 -8 -24 -33 -10 -15 8 -18 7 -15 -3 4 -8
-2 -13 -14 -13 -12 0 -17 5 -13 15 4 10 1 13 -12 8 -9 -4 -15 -3 -11 2 3 5 1
12 -4 15 -5 3 -11 0 -14 -8 -4 -10 -18 -13 -44 -11 -21 1 -43 -1 -49 -6 -14
-12 -46 0 -38 13 4 6 -2 5 -14 -1 -24 -13 -43 -15 -23 -2 22 14 -2 19 -27 6z"/>
<path d="M441 6030 l-45 -5 0 -970 -1 -970 960 -5 960 -5 2 -475 c2 -261 3
-692 3 -957 l0 -483 975 0 975 0 0 975 0 975 -960 0 -960 0 0 960 c0 907 -1
960 -17 962 -48 4 -1854 2 -1892 -2z m1556 -216 c15 -24 16 -29 2 -53 -13 -22
-13 -29 -2 -39 22 -22 16 -68 -13 -91 -15 -12 -35 -21 -46 -21 -38 0 -87 38
-88 68 0 17 47 15 54 -3 3 -8 17 -15 31 -15 36 0 36 45 0 54 -14 4 -25 13 -25
21 0 8 11 17 25 21 28 7 33 31 9 41 -10 4 -22 -1 -29 -10 -14 -20 -55 -23 -55
-4 0 7 7 23 16 35 12 17 25 22 59 22 37 0 47 -4 62 -26z m183 7 c0 -16 -8 -20
-42 -23 -52 -4 -65 -28 -14 -28 66 0 91 -86 40 -137 -21 -21 -32 -24 -62 -19
-34 5 -72 36 -72 57 0 21 32 20 55 -1 20 -19 27 -21 40 -10 20 16 19 59 -1 67
-8 3 -26 0 -40 -7 -36 -20 -46 -3 -38 63 l7 57 63 0 c57 0 64 -2 64 -19z
m-865 -255 c67 -17 104 -38 141 -78 51 -54 67 -95 68 -173 0 -106 -41 -172
-130 -205 l-29 -11 63 -30 c96 -47 146 -134 144 -254 -2 -118 -45 -202 -125
-249 -81 -48 -147 -56 -459 -56 l-288 0 0 528 c0 291 3 532 7 535 13 14 555 8
608 -7z m805 -370 l0 -94 -42 -7 c-113 -18 -172 -73 -188 -171 -6 -33 -10
-139 -10 -236 l0 -177 -86 -3 c-47 -2 -88 -1 -90 1 -2 2 -4 175 -4 383 l0 378
90 0 90 0 0 -45 c0 -25 3 -45 6 -45 3 0 17 14 31 30 39 47 105 76 176 79 l27
1 0 -94z m1938 -1267 c30 -10 47 -33 36 -50 -8 -14 -30 -11 -44 6 -15 18 -50
3 -50 -21 0 -12 6 -15 24 -10 38 10 76 -27 76 -74 0 -46 -26 -70 -76 -70 -47
0 -74 38 -74 104 0 60 16 96 50 113 14 7 25 13 26 13 1 0 15 -5 32 -11z m-138
-6 c-1 -20 -19 -32 -54 -35 -50 -4 -62 -28 -14 -28 46 0 67 -18 74 -62 5 -30
2 -41 -19 -62 -45 -45 -137 -28 -137 26 0 24 31 23 53 -2 21 -24 45 -16 54 18
9 37 -22 58 -55 36 -27 -18 -52 -5 -47 24 2 9 7 34 10 55 l6 37 64 0 c36 0 65
-3 65 -7z m-780 -294 c30 -14 68 -39 84 -55 113 -115 91 -317 -40 -376 l-44
-19 62 -32 c43 -23 70 -45 93 -78 84 -122 57 -322 -53 -406 -81 -62 -113 -67
-459 -71 l-313 -3 0 536 0 536 308 -3 c307 -3 307 -3 362 -29z m821 -288 c63
-24 101 -59 124 -115 13 -31 16 -78 16 -265 -1 -207 6 -307 24 -353 7 -16 -2
-18 -94 -18 l-101 0 -6 30 c-7 33 -16 37 -33 16 -6 -8 -35 -24 -64 -37 -74
-33 -223 -34 -282 -2 -86 46 -129 117 -130 213 0 78 32 141 92 183 53 36 77
44 248 78 82 17 154 35 159 39 5 6 5 22 0 42 -14 50 -61 70 -153 66 -66 -3
-76 -6 -97 -31 -13 -16 -24 -39 -24 -53 l0 -25 -92 3 c-89 3 -93 4 -96 27 -9
63 65 164 146 198 93 39 267 41 363 4z"/>
<path d="M918 5414 c-5 -4 -8 -65 -8 -136 l0 -128 140 0 c157 0 206 12 240 60
43 60 17 159 -48 188 -40 17 -310 31 -324 16z"/>
<path d="M918 4994 c-5 -4 -8 -74 -8 -156 l0 -148 158 0 c179 0 216 7 258 51
26 27 29 37 29 94 0 75 -20 109 -81 140 -33 16 -64 20 -194 23 -85 2 -158 0
-162 -4z"/>
<path d="M2684 3491 c-2 -2 -4 -62 -4 -133 l0 -128 143 0 c163 0 213 15 241
69 31 59 13 145 -37 173 -21 12 -333 29 -343 19z"/>
<path d="M2684 3071 c-2 -2 -4 -71 -4 -153 l0 -150 178 4 c199 3 227 12 258
76 34 73 7 166 -61 205 -19 11 -361 27 -371 18z"/>
<path d="M3888 2955 c-3 -3 -49 -15 -102 -25 -143 -29 -176 -51 -176 -118 0
-21 9 -38 30 -55 39 -33 76 -40 134 -27 109 24 146 67 146 168 0 45 -4 62 -13
62 -8 0 -16 -2 -19 -5z"/>
<path d="M8507 5970 c-14 -16 -36 -31 -48 -33 -20 -3 -23 -10 -25 -60 -2 -38
1 -57 9 -58 7 0 22 -2 35 -5 17 -3 22 0 20 12 -2 10 2 19 7 21 6 2 12 -8 13
-22 2 -24 -1 -25 -53 -25 -29 0 -57 5 -60 10 -4 6 -12 5 -21 -4 -18 -19 -18
-30 1 -22 9 3 15 0 15 -10 0 -9 -7 -14 -17 -12 -14 2 -17 -3 -15 -19 3 -23 1
-24 -50 -27 -24 -1 -35 -16 -12 -16 18 -1 17 -2 -3 -19 -30 -25 -29 -55 2 -69
14 -6 25 -16 25 -22 0 -6 -4 -9 -9 -6 -5 3 -14 0 -20 -8 -9 -11 -9 -15 0 -18
8 -3 -2 -19 -24 -42 -42 -43 -51 -74 -16 -56 48 26 33 -1 -50 -87 -75 -79 -85
-93 -66 -93 13 0 26 -4 29 -9 8 -12 -223 -2 -247 11 -25 13 -29 6 -29 -43 1
-67 20 -80 138 -94 l50 -6 -4 -119 c-4 -117 14 -284 40 -355 38 -106 97 -203
171 -279 79 -81 87 -97 63 -122 -19 -19 -23 -18 -29 8 -9 34 -18 15 -22 -42
-1 -35 1 -50 9 -47 7 3 12 -4 12 -14 0 -12 -5 -18 -13 -15 -7 3 -13 -1 -13 -8
0 -8 7 -17 16 -20 9 -3 14 -13 10 -21 -3 -8 -1 -17 5 -21 7 -4 6 -10 -1 -19
-8 -9 -8 -15 0 -20 14 -9 13 -36 -2 -33 -9 2 -12 -9 -11 -35 2 -21 -5 -53 -14
-70 -11 -22 -12 -32 -4 -35 6 -2 11 -15 11 -30 0 -20 3 -23 12 -14 19 19 24
15 38 -30 l13 -43 11 28 c12 32 17 33 41 7 14 -15 15 -23 6 -34 -9 -11 -9 -15
1 -19 10 -4 9 -9 -4 -20 -13 -10 -15 -16 -6 -25 7 -7 8 -12 3 -12 -5 0 -1 -6
9 -13 17 -13 13 -47 -6 -47 -29 0 -50 53 -25 63 9 4 9 6 0 6 -9 1 -10 8 -4 24
8 21 5 26 -24 39 -33 15 -33 15 -24 -9 5 -13 7 -39 4 -59 -5 -38 3 -67 15 -59
14 9 23 -16 11 -28 -6 -6 -11 -23 -11 -39 0 -20 4 -26 15 -22 10 4 13 14 9 29
-3 13 0 26 7 31 8 5 11 2 6 -8 -4 -12 -1 -14 14 -11 10 3 19 0 19 -6 0 -6 -7
-11 -15 -11 -8 0 -15 -4 -15 -10 0 -6 10 -6 27 1 19 7 28 6 33 -2 6 -8 9 -8
14 0 4 6 5 14 3 19 -3 4 1 13 9 20 12 11 14 9 14 -12 0 -35 -10 -56 -26 -56
-10 0 -13 -8 -9 -27 3 -16 2 -22 -1 -15 -3 6 -10 9 -15 6 -6 -4 -6 -11 1 -19
8 -9 7 -20 -2 -40 -9 -20 -9 -31 0 -46 7 -10 12 -26 12 -34 0 -18 17 -20 23
-2 3 9 7 9 19 0 11 -10 17 -10 26 -1 9 9 12 9 12 1 0 -6 -5 -13 -12 -15 -6 -2
-8 -10 -4 -17 5 -7 13 -8 19 -4 7 5 27 8 45 8 21 0 32 4 32 13 0 10 -7 12 -26
8 -20 -5 -27 -3 -31 14 -5 19 -17 25 -67 32 -22 3 -35 61 -16 73 5 3 7 18 4
33 -5 18 -3 24 4 17 14 -14 25 -55 15 -55 -5 0 -9 -9 -10 -20 -1 -13 4 -20 17
-20 10 0 22 -5 26 -11 5 -8 8 -8 14 0 7 13 40 4 40 -10 0 -5 7 -9 15 -9 8 0
15 -8 15 -18 0 -10 5 -23 12 -30 13 -13 -5 -42 -27 -42 -7 0 -18 -6 -24 -14
-9 -11 -6 -15 16 -21 16 -5 31 -8 36 -7 4 1 7 -10 7 -24 0 -23 -3 -25 -25 -20
-14 4 -25 2 -25 -4 0 -5 6 -10 14 -10 7 0 16 -10 19 -22 7 -25 -2 -46 -13 -29
-8 14 -36 5 -44 -15 -3 -8 1 -17 8 -20 8 -3 12 -14 9 -25 -4 -14 -1 -18 10
-13 22 8 32 -32 13 -52 -18 -17 -13 -34 10 -34 8 0 14 -4 14 -10 0 -5 7 -10
16 -10 13 0 14 -3 4 -15 -6 -8 -9 -23 -5 -35 5 -14 2 -20 -9 -20 -22 0 -20
-17 4 -30 18 -10 19 -13 6 -25 -8 -8 -18 -15 -22 -15 -16 0 -42 33 -37 46 3 8
1 14 -5 14 -11 0 -26 -30 -23 -44 1 -5 -5 -6 -13 -3 -19 7 -27 -25 -10 -41 18
-16 24 -15 25 6 0 10 3 12 6 5 2 -7 14 -13 26 -13 21 1 22 1 3 15 -11 8 -17
17 -14 20 3 3 19 -9 37 -27 28 -28 31 -30 31 -11 0 26 26 50 32 31 3 -7 -1
-17 -8 -23 -7 -5 -14 -29 -16 -52 -2 -41 -21 -65 -32 -40 -2 7 -5 8 -5 2 -1
-16 15 -36 30 -39 8 -2 27 -8 43 -15 l30 -12 -25 -17 c-28 -20 -37 -59 -15
-68 9 -3 13 -10 10 -15 -3 -5 1 -9 8 -9 10 0 10 -2 -1 -9 -22 -14 -24 -44 -3
-37 15 5 15 5 0 -7 -13 -11 -15 -16 -6 -25 9 -9 8 -12 -6 -12 -12 0 -16 -5
-12 -15 4 -13 2 -14 -14 -5 -11 6 -20 18 -20 27 0 14 -2 14 -15 -3 -9 -12 -14
-14 -15 -5 0 8 -7 11 -20 8 -11 -3 -23 -1 -26 4 -9 15 -23 10 -22 -9 0 -9 -3
-26 -7 -36 -6 -14 -5 -17 3 -12 8 5 12 0 12 -13 0 -12 5 -21 10 -21 6 0 10 -8
10 -17 0 -10 11 -40 25 -68 13 -27 25 -58 25 -69 0 -15 6 -17 30 -14 20 3 30
0 30 -8 0 -8 -6 -11 -15 -8 -22 9 -29 -22 -11 -48 9 -12 16 -28 16 -34 0 -7
20 -32 44 -57 39 -39 43 -46 30 -59 -13 -13 -12 -17 6 -33 11 -10 23 -15 27
-11 4 4 1 12 -7 17 -12 8 -11 9 5 7 26 -4 26 -30 -1 -43 -46 -23 14 -76 67
-60 18 6 19 5 7 -14 -7 -12 -18 -19 -24 -17 -8 3 -9 -7 -3 -35 13 -57 37 -91
60 -84 27 9 25 -21 -2 -35 -11 -7 -36 -12 -55 -13 -28 -2 -34 -6 -30 -20 2 -9
0 -15 -5 -11 -5 3 -9 -2 -9 -10 0 -9 4 -16 8 -16 13 0 71 30 77 40 8 13 35 0
35 -16 0 -8 -9 -14 -20 -14 -13 0 -20 -7 -20 -20 0 -13 -6 -19 -17 -17 -19 2
-23 -3 -23 -28 0 -8 9 -15 21 -15 11 0 17 5 14 10 -7 11 47 70 63 70 10 0 22
-32 22 -59 0 -11 -4 -11 -18 2 -10 10 -24 17 -30 17 -17 0 -25 -39 -11 -56 10
-13 10 -17 -2 -25 -20 -12 -31 -11 -57 7 -34 23 -41 14 -33 -47 1 -4 12 -10
25 -13 29 -7 39 -28 23 -50 -11 -16 -15 -16 -46 0 -40 20 -53 10 -55 -40 -1
-36 -9 -45 -22 -25 -4 7 -9 8 -13 1 -4 -6 -15 -6 -30 -1 -19 8 -21 12 -11 24
9 10 9 15 1 15 -6 0 -10 5 -8 11 4 19 -20 21 -38 3 -11 -12 -19 -14 -24 -6 -3
6 -18 14 -34 17 -15 4 -25 11 -22 15 3 5 0 12 -6 15 -5 4 -8 13 -5 21 3 8 0
14 -7 14 -8 0 -13 -14 -14 -34 -1 -32 2 -35 43 -46 25 -7 44 -19 44 -26 0 -8
5 -14 10 -14 6 0 10 6 10 14 0 16 27 29 35 16 9 -14 -6 -40 -24 -41 -10 0 -11
-2 -3 -6 6 -2 12 -14 12 -25 0 -18 -5 -20 -41 -15 -49 6 -71 23 -49 37 12 8
12 10 -3 16 -12 4 -16 13 -11 27 5 16 3 19 -11 13 -12 -4 -26 4 -46 26 -27 31
-29 32 -29 11 0 -13 -5 -23 -11 -23 -6 0 -9 -6 -6 -14 4 -10 0 -14 -14 -13
-10 1 -19 5 -19 9 0 4 -7 8 -15 8 -8 0 -15 7 -15 16 0 11 -5 14 -17 10 -9 -4
-20 -1 -25 6 -5 9 -8 6 -8 -10 0 -15 7 -26 19 -29 16 -4 19 -13 17 -54 -1 -27
2 -49 6 -49 4 0 8 8 9 18 0 10 3 12 6 5 2 -7 12 -13 20 -13 13 0 13 -2 2 -17
-10 -11 -10 -14 -1 -9 6 4 12 2 12 -3 0 -6 -5 -11 -11 -11 -6 0 -17 -7 -25
-15 -9 -8 -11 -15 -5 -15 7 0 9 -10 5 -25 -5 -20 -3 -25 14 -25 11 0 22 -8 25
-21 4 -15 2 -17 -6 -10 -9 7 -11 -2 -9 -35 3 -29 8 -42 16 -38 8 5 8 4 -1 -6
-7 -7 -22 -10 -40 -6 -24 6 -28 12 -31 46 -2 27 2 40 10 40 8 0 7 4 -3 10 -23
13 -65 -9 -61 -32 2 -12 -2 -15 -17 -11 -12 3 -21 1 -21 -6 0 -6 7 -11 16 -11
13 0 14 -3 5 -14 -8 -10 -9 -16 -1 -21 19 -12 10 -25 -18 -25 -15 0 -38 7 -50
16 -29 20 -52 12 -51 -18 1 -17 2 -18 6 -6 6 25 23 23 23 -2 0 -13 -16 -31
-46 -50 -47 -30 -64 -31 -64 -4 0 8 -7 14 -15 14 -19 0 -56 37 -54 53 3 28 -2
47 -13 47 -7 0 -29 14 -48 30 l-35 29 50 1 c28 0 59 7 69 15 11 8 27 15 36 15
9 0 21 10 27 22 8 18 6 27 -8 42 -19 19 -19 19 -19 -2 0 -29 -28 -42 -79 -35
-29 4 -41 10 -37 19 5 14 -19 9 -41 -9 -9 -6 -13 -6 -13 2 0 6 -5 11 -11 11
-12 0 -49 38 -49 50 0 4 11 5 25 2 14 -2 36 3 50 12 20 13 26 14 29 4 2 -7 6
-20 9 -28 3 -12 16 -14 51 -12 25 2 43 8 40 13 -3 5 -12 9 -20 9 -8 0 -13 4
-10 8 3 5 26 8 51 6 25 -2 43 1 40 5 -3 5 -1 11 4 13 17 6 17 101 0 125 -9 13
-19 20 -22 16 -4 -4 -2 8 4 25 7 21 18 32 30 32 11 0 22 7 25 15 4 10 13 13
26 9 13 -4 18 -2 14 4 -3 6 0 13 6 15 10 4 10 6 1 6 -20 1 -15 25 7 39 21 13
27 34 9 29 -21 -4 -21 24 0 30 22 5 26 14 14 27 -11 10 -13 38 -7 69 5 23 8
26 20 16 11 -9 14 -8 14 5 0 9 3 16 8 16 4 0 8 18 8 40 2 47 4 50 33 53 11 1
23 7 26 15 4 10 -1 11 -18 6 -21 -6 -21 -6 -4 13 9 11 14 23 10 26 -3 4 -1 7
6 7 7 0 9 5 5 12 -4 7 -3 8 5 4 17 -11 41 12 41 38 0 12 4 26 9 31 4 6 12 24
15 40 6 24 5 28 -5 17 -7 -6 -18 -12 -23 -12 -6 1 0 10 13 20 19 17 20 20 6
20 -14 0 -15 3 -5 15 7 8 9 15 5 15 -4 0 -2 7 5 15 6 8 9 18 6 24 -3 5 1 11 9
15 17 6 21 -19 5 -29 -13 -8 -13 -45 -1 -45 5 0 15 16 21 36 10 30 9 38 -5 54
-17 18 -17 21 0 46 9 14 15 37 13 49 -3 13 -1 50 3 82 5 32 6 72 3 89 -5 26
-9 31 -27 26 -16 -4 -19 -2 -14 11 4 10 3 37 -2 62 -6 31 -5 45 2 45 7 0 7 4
-1 12 -7 7 -12 22 -12 35 0 27 -7 29 -31 7 -15 -14 -18 -13 -27 15 -6 17 -16
31 -21 31 -6 0 -11 7 -11 15 0 9 -6 18 -14 21 -8 3 -20 20 -27 37 -7 18 -19
36 -26 40 -7 4 -13 18 -13 30 0 12 -11 32 -24 44 -15 15 -25 38 -29 69 -2 25
-13 58 -24 73 -18 24 -28 46 -53 114 l-10 29 -51 -44 c-28 -24 -69 -59 -92
-79 -84 -71 -246 -188 -353 -254 -18 -12 -68 -52 -111 -91 -122 -111 -190
-165 -298 -238 -55 -38 -118 -83 -140 -101 -22 -17 -59 -44 -83 -59 -23 -15
-51 -34 -60 -44 -10 -9 -63 -57 -117 -107 -55 -49 -142 -133 -195 -185 -83
-84 -153 -137 -342 -262 -23 -16 -52 -28 -65 -28 -12 0 -57 -19 -100 -42 -43
-23 -108 -58 -145 -77 -37 -20 -98 -58 -135 -85 -37 -26 -119 -75 -183 -108
-108 -57 -192 -109 -455 -284 -88 -58 -128 -79 -200 -99 -97 -28 -182 -71
-230 -116 -52 -48 -203 -109 -271 -109 -10 0 -53 -10 -97 -21 -59 -16 -106
-39 -194 -95 -63 -41 -117 -74 -119 -74 -3 0 -39 -34 -81 -76 -42 -42 -113
-101 -157 -130 -100 -67 -178 -120 -191 -131 -5 -5 -26 -20 -45 -33 -19 -14
-37 -27 -40 -30 -10 -11 -156 -115 -178 -128 -13 -7 -27 -10 -32 -7 -6 4 -10
0 -10 -9 0 -8 -6 -17 -12 -19 -7 -3 2130 -6 4750 -6 l4762 -1 0 718 c0 713 -1
717 -20 692 -11 -14 -20 -30 -20 -37 0 -6 -13 -14 -30 -18 -16 -4 -30 -13 -30
-21 0 -9 -11 -14 -31 -14 -24 0 -29 -3 -21 -12 7 -9 6 -17 -4 -26 -21 -20 -29
10 -11 40 8 13 13 31 12 40 -2 9 3 19 11 22 8 3 14 16 14 30 0 13 7 26 15 30
8 3 15 15 15 27 0 15 4 19 16 15 12 -5 15 -2 10 10 -8 22 14 50 25 32 4 -7 11
-9 16 -4 4 4 0 12 -9 17 -14 8 -15 15 -7 47 6 20 13 44 16 52 3 8 7 28 9 45 1
16 7 31 13 33 8 3 11 122 11 410 -1 294 -4 402 -11 389 -6 -11 -9 -30 -6 -44
3 -14 -1 -27 -8 -29 -7 -3 -16 -22 -20 -42 -4 -20 -13 -45 -21 -56 -8 -11 -14
-28 -14 -38 0 -10 -7 -18 -16 -18 -9 0 -14 -7 -13 -18 2 -9 -2 -27 -9 -39 -7
-13 -10 -34 -6 -48 4 -17 2 -25 -6 -25 -10 0 -10 -3 0 -15 10 -12 7 -15 -12
-20 -22 -6 -24 -11 -23 -51 2 -40 0 -45 -17 -41 -29 8 -16 -14 20 -33 38 -21
21 -34 -26 -21 -38 11 -67 -9 -57 -40 7 -20 5 -21 -20 -15 -22 6 -28 3 -32
-14 -6 -23 -23 -27 -23 -6 0 8 7 16 15 20 21 8 36 49 21 58 -7 5 -7 8 3 8 9 0
11 7 8 21 -4 14 -1 19 7 16 20 -8 36 29 29 65 -3 18 -2 30 2 25 13 -11 43 42
37 65 -3 13 3 25 18 35 16 11 19 18 9 23 -9 6 -5 15 15 33 l27 26 -22 11 c-17
9 -20 9 -14 0 4 -7 4 -15 -1 -19 -5 -3 -15 -18 -21 -34 -14 -31 -34 -37 -26
-7 5 18 2 20 -21 16 -14 -3 -26 -2 -26 0 0 9 27 33 32 28 3 -2 11 3 19 13 13
15 12 16 -6 9 -17 -6 -17 -4 4 18 17 18 32 24 52 22 20 -2 29 2 33 16 2 11 9
17 14 14 13 -8 13 56 0 71 -6 7 -20 13 -32 14 -11 0 -15 3 -8 6 13 5 17 24 5
22 -35 -6 -45 16 -13 26 27 8 25 40 -2 60 -18 12 -20 17 -10 24 11 6 10 12 -4
26 -17 17 -17 17 6 10 14 -4 27 -12 28 -16 2 -5 12 -9 22 -9 13 0 20 10 24 36
4 19 10 42 13 50 4 10 0 12 -11 8 -9 -3 -16 -1 -16 5 0 6 7 11 15 11 19 0 19
9 -1 35 -13 18 -13 20 3 27 10 5 3 6 -17 2 -26 -4 -31 -3 -20 5 8 6 10 11 5
11 -6 0 -16 18 -21 39 -10 36 -9 40 10 45 12 3 31 6 44 6 19 0 22 4 18 20 -3
11 -9 29 -12 40 -4 14 -1 20 10 20 9 0 16 4 16 8 0 14 -25 62 -32 62 -4 0 -5
7 -2 15 4 8 15 15 25 15 17 0 18 3 8 22 -10 18 -9 20 5 15 18 -7 20 1 6 23 -9
13 -11 13 -20 0 -8 -13 -10 -13 -10 -1 0 12 -3 12 -12 3 -7 -7 -17 -12 -22
-12 -6 0 -5 5 2 12 18 18 14 32 -4 17 -15 -12 -16 -11 -10 9 4 12 3 22 -2 22
-12 0 -10 100 2 118 4 7 14 11 22 8 8 -3 14 0 14 8 0 20 -12 27 -27 14 -10 -8
-17 -8 -26 1 -9 9 -9 14 1 20 11 6 11 14 -1 42 -16 37 -17 36 -37 -43 -7 -27
-17 -48 -22 -48 -6 0 -7 -8 -4 -17 7 -20 -36 25 -53 54 -15 27 -26 6 -11 -22
9 -18 11 -47 6 -112 -4 -48 -9 -113 -10 -143 -2 -30 -7 -91 -12 -135 -5 -44
-7 -91 -6 -104 2 -13 1 -30 -3 -39 -5 -13 -8 -12 -25 3 -11 10 -20 15 -20 11
0 -13 28 -36 43 -36 14 0 15 -59 2 -155 -3 -22 -6 -52 -5 -67 0 -16 -6 -43
-13 -61 -8 -18 -13 -47 -12 -65 1 -17 -2 -32 -6 -32 -5 0 -14 -19 -21 -42 -6
-24 -16 -46 -21 -49 -5 -3 -10 -24 -12 -45 -1 -21 -6 -47 -10 -56 -4 -9 -4
-22 -1 -27 4 -6 -3 -15 -14 -21 -17 -9 -20 -8 -20 9 0 11 -3 27 -7 37 -4 11
-3 15 4 11 7 -5 14 6 18 25 4 18 13 37 19 41 6 5 0 5 -13 2 -17 -5 -21 -4 -16
5 4 7 1 16 -6 21 -11 7 -10 9 4 9 21 0 22 16 2 37 -21 20 -11 30 12 12 14 -10
-13 26 -37 51 -12 12 -50 70 -50 76 0 4 8 0 18 -9 10 -10 22 -14 25 -11 4 4
11 -5 16 -19 5 -14 15 -28 20 -32 15 -8 14 18 0 32 -16 16 -3 47 16 39 9 -3
15 0 15 9 0 8 -7 15 -16 15 -8 0 -13 4 -9 9 3 5 1 12 -5 16 -5 3 -10 11 -10
16 0 6 5 7 10 4 19 -12 10 45 -10 65 -16 16 -18 24 -10 40 6 11 8 25 4 31 -4
6 -1 15 7 19 9 6 5 11 -14 15 -28 7 -47 31 -47 58 0 10 7 13 20 10 18 -5 25 5
21 30 -1 4 3 16 8 26 8 14 6 18 -7 18 -32 0 -44 -42 -14 -51 13 -4 13 -4 -3
-3 -23 3 -34 45 -14 58 14 8 19 97 5 102 -5 2 -3 20 5 40 12 34 11 38 -7 55
-11 11 -26 22 -34 25 -12 4 -11 6 3 6 18 1 23 16 7 26 -5 3 -7 13 -4 23 5 16
5 16 -9 0 -19 -23 -27 -23 -27 2 0 10 -8 24 -17 29 -10 6 -12 11 -5 11 14 0
17 60 2 60 -5 0 -10 -5 -10 -12 0 -9 -3 -9 -12 0 -8 8 -17 8 -31 0 -15 -7 -22
-7 -28 3 -6 10 -9 11 -9 2 0 -7 -7 -13 -16 -13 -14 0 -14 3 -4 15 7 9 20 13
27 10 8 -3 21 2 29 10 9 9 11 15 4 15 -6 0 -8 5 -5 10 3 6 1 10 -5 10 -7 0 -9
-7 -6 -16 3 -9 2 -12 -5 -8 -6 3 -8 15 -5 27 4 15 2 17 -7 8 -15 -15 -27 -14
-27 3 0 8 -12 19 -27 24 l-28 10 28 7 c15 4 27 11 27 16 0 5 4 9 9 9 5 0 7 -8
4 -19 -3 -10 1 -22 8 -26 8 -6 10 -4 4 6 -6 11 -5 12 6 2 18 -17 32 -16 26 1
-7 18 28 60 43 51 15 -9 25 24 11 38 -9 9 -11 8 -6 -5 5 -13 2 -18 -11 -18
-22 1 -85 28 -68 29 7 1 14 10 17 21 3 10 0 18 -5 17 -6 -1 -12 3 -15 9 -6 18
42 5 66 -17 28 -26 27 -14 -1 20 -17 19 -31 25 -52 23 -21 -3 -26 0 -20 10 9
14 -26 -9 -38 -26 -4 -6 -13 -4 -22 3 -9 8 -16 10 -16 5 0 -5 -7 -1 -15 10 -8
10 -19 15 -26 10 -8 -4 -10 -3 -5 4 10 17 32 15 51 -4 12 -13 19 -14 28 -5 8
8 7 11 -6 11 -11 0 -17 8 -17 21 0 12 -8 23 -20 26 -11 3 -20 13 -20 22 0 10
-3 21 -7 24 -9 10 -34 -13 -27 -25 3 -5 -3 -4 -15 3 l-20 13 21 23 c12 13 17
23 11 23 -6 0 -14 -6 -17 -12 -3 -10 -9 -8 -19 5 -8 9 -22 17 -31 17 -13 0
-16 5 -11 23 7 21 6 21 -7 3 -10 -13 -17 -15 -22 -8 -4 7 -2 12 4 12 7 0 9 8
5 20 -5 14 -2 20 9 20 9 0 16 5 16 11 0 5 -4 8 -8 5 -5 -3 -20 2 -33 12 -13 9
-34 15 -48 13 -15 -2 -21 1 -17 8 4 6 22 11 39 11 26 0 33 4 33 20 0 14 -7 20
-23 20 -12 0 -25 5 -28 11 -5 6 -13 3 -22 -10 -8 -12 -19 -21 -26 -21 -8 0 -8
3 1 12 24 24 14 44 -23 45 -40 1 -65 22 -65 53 0 17 -4 21 -17 16 -10 -4 -14
-4 -11 0 4 3 -2 15 -13 27 -21 23 -24 33 -9 42 6 3 10 15 10 26 0 10 -4 19
-10 19 -5 0 -10 5 -10 11 0 6 9 8 23 4 12 -3 17 -3 11 2 -6 4 -13 16 -17 26
-8 22 -29 12 -25 -11 2 -11 -4 -17 -17 -17 -11 0 -19 5 -18 12 2 7 -4 10 -12
7 -8 -4 -15 -1 -15 5 0 18 -21 12 -42 -11 -15 -18 -21 -19 -27 -9 -7 11 -11
10 -20 -5 -8 -13 -14 -15 -17 -7 -3 7 -12 9 -20 6 -8 -3 -14 -1 -14 5 0 12 29
24 41 16 5 -3 9 0 9 5 0 6 -10 11 -23 11 -16 0 -27 -10 -39 -35 -8 -19 -12
-35 -8 -35 5 0 8 -20 7 -45 -1 -31 -6 -45 -16 -45 -11 0 -11 -3 -1 -15 11 -13
15 -13 21 -3 7 10 9 10 9 -1 0 -12 3 -12 12 -3 19 19 33 14 16 -5 -14 -16 -14
-22 0 -53 8 -19 17 -30 19 -23 4 10 7 10 17 0 8 -6 11 -18 9 -24 -3 -7 -1 -13
3 -13 11 0 18 -74 18 -188 0 -74 -2 -85 -23 -105 -13 -12 -21 -16 -17 -9 4 6
2 12 -3 12 -6 0 -11 -4 -11 -10 0 -5 -5 -10 -11 -10 -10 0 -231 -106 -269
-129 -8 -5 -32 -17 -52 -26 -21 -9 -38 -19 -38 -23 0 -7 -48 -32 -62 -32 -5 0
-6 11 -2 25 3 14 2 25 -4 25 -5 0 -9 -8 -8 -17 0 -10 -7 -19 -16 -21 -13 -3
-16 1 -11 14 4 12 2 15 -8 12 -8 -3 -13 -12 -11 -22 2 -9 -2 -16 -8 -16 -5 0
-9 3 -9 8 4 21 -3 23 -25 8 -15 -10 -27 -12 -31 -6 -3 6 0 10 8 10 8 0 17 7
20 15 5 12 2 12 -18 3 -14 -6 -25 -15 -25 -20 0 -18 -19 -7 -23 15 -5 20 -5
20 -5 -3 0 -14 0 -36 -1 -50 l-2 -25 -18 23 c-11 12 -22 22 -26 22 -11 0 -35
-28 -35 -41 0 -8 -5 -6 -12 4 -10 13 -24 16 -56 13 -33 -3 -42 0 -38 10 6 17
-8 18 -34 4 -11 -6 -18 -16 -16 -23 1 -6 1 -9 -1 -4 -3 4 -12 7 -21 7 -12 0
-13 3 -5 8 9 6 7 11 -7 20 -11 7 -20 9 -20 4 0 -14 -41 -11 -47 4 -3 7 -9 11
-14 8 -16 -9 -88 18 -82 32 4 10 -35 42 -44 36 -2 -1 -6 -1 -10 -1 -5 1 -17 0
-27 -1 -11 -1 -28 9 -38 22 -10 12 -16 16 -13 7 10 -27 -23 -30 -50 -5 -14 13
-25 28 -25 35 0 6 -8 11 -17 11 -10 0 -27 7 -37 15 -10 8 -23 12 -27 9 -5 -3
-6 2 -3 10 4 11 0 16 -10 16 -9 0 -16 5 -16 10 0 6 -5 10 -11 10 -7 0 -19 8
-28 18 -9 10 -37 27 -63 38 -37 15 -50 27 -65 59 -12 26 -24 39 -34 37 -18 -3
-33 24 -22 40 3 6 1 8 -4 5 -6 -4 -16 0 -23 8 -9 10 -9 15 -1 15 6 0 11 7 11
15 0 8 5 15 11 15 8 0 8 4 1 13 -11 13 7 69 27 81 5 4 8 13 5 21 -7 18 24 65
43 65 9 0 12 6 8 19 -7 23 23 38 32 15 3 -8 12 -13 19 -10 8 3 14 0 14 -6 0
-7 7 -3 15 8 12 16 14 17 15 3 0 -9 7 -20 16 -23 21 -8 24 -8 24 4 0 6 -7 10
-16 10 -9 0 -14 7 -12 18 2 11 11 16 23 14 20 -3 20 -3 0 11 -11 9 -20 27 -20
40 -1 22 2 24 18 15 10 -5 16 -16 13 -23 -3 -8 -1 -17 5 -21 6 -3 14 -16 19
-28 8 -19 9 -19 9 7 1 16 6 38 12 50 8 13 8 22 2 24 -12 4 -4 53 8 53 5 0 9 5
9 10 0 6 -16 10 -36 10 -25 0 -33 3 -28 13 5 8 2 7 -10 -2 -15 -13 -19 -12
-34 4 -16 18 -16 18 0 6 16 -12 17 -9 14 37 l-4 50 29 -26 c16 -14 29 -33 29
-43 0 -9 7 -20 16 -23 22 -9 22 -9 20 19 0 16 -6 23 -13 20 -7 -2 -13 1 -13 8
0 7 6 19 13 26 10 11 10 14 0 18 -20 7 -15 24 5 21 10 -2 17 3 16 12 -1 9 8
16 23 16 16 1 23 -3 23 -17 0 -23 16 -25 24 -3 7 19 -12 47 -26 38 -6 -4 -4 4
2 17 l13 23 8 -22 c5 -12 13 -22 19 -22 5 0 10 -6 10 -14 0 -8 5 -18 12 -22 8
-5 9 -2 5 9 -7 19 8 23 17 5 3 -7 5 -4 4 7 -2 25 11 65 21 65 4 0 13 -10 19
-22 11 -22 11 -21 6 5 -4 15 -2 27 4 27 15 0 10 69 -5 74 -7 3 -13 13 -13 23
1 17 1 17 14 1 14 -19 32 -25 21 -8 -4 6 -1 18 7 27 10 13 10 17 1 20 -7 3
-13 15 -13 27 0 12 -7 31 -15 42 -19 25 -19 38 -1 31 11 -4 13 -1 9 10 -5 13
-2 15 16 10 16 -4 20 -2 13 6 -6 7 -12 27 -15 45 -3 19 -8 36 -10 38 -3 3 4
28 15 56 13 35 16 54 9 61 -7 7 -6 14 3 21 8 6 17 27 21 46 4 26 3 31 -4 20
-9 -12 -11 -11 -11 7 0 12 9 28 21 36 13 9 16 17 10 22 -19 11 -12 28 9 22 23
-6 52 27 43 50 -3 8 0 19 7 23 11 7 11 11 1 23 -8 10 -9 17 -1 22 5 3 10 3 10
-1 0 -4 8 0 18 8 25 22 64 29 177 33 67 3 116 -1 149 -10 27 -8 52 -12 57 -9
10 6 11 2 13 -38 1 -14 13 -41 26 -59 14 -17 25 -40 25 -49 1 -10 6 -24 13
-32 6 -8 15 -30 18 -49 4 -19 13 -42 19 -52 7 -10 11 -27 8 -38 -3 -11 0 -19
7 -19 7 0 10 -7 7 -15 -4 -8 -2 -17 4 -20 5 -4 9 -12 8 -18 -3 -26 2 -37 16
-37 11 0 14 -7 9 -24 -4 -19 -1 -26 16 -31 20 -6 20 -8 5 -25 -11 -13 -13 -20
-5 -25 6 -4 15 -18 20 -31 7 -17 15 -22 27 -18 11 3 14 2 8 -3 -26 -22 -1 -84
27 -67 10 6 10 5 0 -8 -7 -8 -10 -23 -6 -32 3 -9 1 -23 -6 -31 -7 -9 -9 -19
-5 -23 4 -4 10 -1 12 6 9 25 24 11 18 -17 -3 -16 -2 -32 4 -35 6 -4 7 -14 4
-23 -5 -12 -2 -15 9 -10 23 8 28 -1 17 -29 -10 -27 6 -64 28 -64 17 0 16 10
-2 24 -11 8 -14 20 -9 45 6 30 8 32 20 17 7 -10 15 -17 18 -17 28 3 35 -1 30
-16 -4 -13 -3 -14 3 -5 9 12 42 7 53 -9 3 -3 20 -10 38 -14 23 -5 32 -3 32 6
0 7 3 10 6 7 3 -3 0 -15 -7 -26 -10 -16 -10 -23 4 -36 8 -9 22 -16 31 -16 8 0
18 -5 21 -10 3 -6 18 -8 33 -5 17 3 21 2 10 -2 -14 -7 -15 -10 -3 -27 12 -16
17 -17 30 -6 8 7 15 19 15 27 0 11 7 13 29 8 17 -3 32 -2 36 4 10 16 23 13 28
-6 4 -17 5 -17 6 0 1 20 31 24 31 3 0 -9 8 -12 25 -8 13 2 33 1 42 -3 27 -12
76 -14 95 -4 13 7 30 3 59 -11 38 -20 42 -20 59 -5 10 9 24 13 35 9 13 -6 16
-4 10 6 -5 8 -3 11 6 8 8 -3 13 -13 11 -22 -2 -13 3 -17 20 -14 13 2 22 -2 21
-8 -1 -7 6 -10 18 -7 14 4 17 8 9 13 -8 5 -8 10 -2 14 5 3 20 -3 32 -14 30
-26 33 -25 19 3 -11 20 -11 21 4 8 14 -11 20 -11 33 0 14 12 20 9 40 -16 l23
-29 24 22 c18 17 26 19 35 10 9 -9 12 -9 12 3 0 11 2 12 9 0 6 -10 13 -11 29
-2 25 13 35 14 28 2 -3 -5 1 -14 9 -21 13 -10 15 -9 15 11 0 18 3 20 12 11 17
-17 31 -15 24 3 -8 22 30 19 44 -2 9 -16 10 -15 8 7 -2 15 4 31 15 40 10 9 19
29 19 48 1 17 5 32 10 32 6 0 9 -19 8 -42 -4 -68 -2 -75 14 -52 8 10 19 20 25
20 22 3 23 4 10 21 -12 15 -12 16 2 11 9 -4 27 0 38 9 12 8 24 13 26 12 7 -8
8 -35 0 -52 -11 -26 3 -34 20 -11 7 10 11 29 9 40 -3 12 -1 25 5 28 6 4 7 15
1 30 -7 20 -4 25 26 39 25 12 34 13 34 4 0 -8 4 -7 10 3 5 8 9 42 9 75 0 33
-3 53 -6 45 -11 -26 -44 -49 -78 -55 -5 0 -23 -6 -38 -13 -36 -15 -50 -15 -66
1 -7 6 -12 8 -11 2 6 -27 -5 -34 -61 -44 -42 -7 -67 -7 -80 0 -14 7 -19 7 -17
-2 4 -15 -97 -35 -164 -33 -27 1 -48 -2 -48 -7 0 -5 -48 -9 -107 -9 -60 0
-130 -2 -158 -5 -27 -2 -57 -2 -65 2 -8 3 -19 7 -25 7 -126 17 -232 54 -227
81 2 12 -2 14 -21 10 -17 -5 -32 1 -55 23 -17 16 -34 27 -37 24 -3 -3 -5 4 -5
16 0 11 -6 22 -12 25 -18 6 5 43 24 39 7 -1 -1 10 -17 26 -18 16 -29 35 -27
47 3 20 3 20 -13 0 -9 -11 -18 -18 -21 -17 -3 2 -9 0 -12 -4 -4 -4 -1 -4 6 0
16 10 15 -9 -2 -23 -11 -9 -15 -6 -18 18 -2 17 -1 28 4 25 4 -3 8 2 8 11 0 11
-5 15 -14 12 -8 -3 -17 -1 -20 6 -3 9 -7 8 -15 -3 -8 -11 -10 -7 -7 17 3 18 7
37 11 43 4 6 2 17 -5 25 -8 10 -8 15 1 20 8 6 7 10 -2 16 -9 6 -10 9 -2 9 6 0
18 -7 27 -15 8 -8 19 -15 24 -15 5 0 21 -9 36 -21 14 -11 26 -16 26 -11 0 5
11 12 24 14 17 4 23 1 19 -9 -3 -7 2 -13 11 -13 9 0 16 -7 16 -15 0 -8 5 -15
10 -15 6 0 10 6 9 13 -4 33 2 45 20 40 22 -6 26 -53 8 -88 -9 -19 -9 -19 9 -3
19 16 22 16 64 -12 27 -18 57 -29 75 -29 17 1 22 3 13 6 -10 2 -18 9 -18 14 0
6 -4 7 -10 4 -5 -3 -10 -2 -10 4 0 15 42 9 67 -9 17 -13 19 -20 10 -29 -9 -10
-8 -11 6 -6 10 4 17 2 17 -4 0 -7 9 -9 25 -5 20 5 25 2 25 -14 0 -22 50 -48
75 -38 12 4 13 11 5 32 -11 27 3 50 22 38 17 -11 50 -13 74 -4 30 12 76 -4 68
-23 -4 -10 3 -13 26 -9 30 4 39 16 20 27 -5 3 -7 12 -3 21 4 11 9 12 18 4 9
-7 15 -7 19 -1 4 5 -2 14 -11 20 -10 5 -14 13 -10 17 5 5 12 2 18 -6 8 -13 11
-13 20 3 8 13 14 15 29 7 12 -7 27 -7 45 0 14 5 33 10 42 10 13 0 13 -3 3 -15
-23 -27 -1 -29 24 -2 13 14 21 28 18 31 -3 3 0 6 6 6 7 0 12 4 12 9 0 6 -19 8
-42 6 -65 -7 -68 -8 -68 -19 0 -6 -4 -4 -10 4 -6 9 -5 17 3 23 11 7 -2 6 -68
-8 -27 -6 -34 9 -10 22 12 7 11 13 -9 36 -13 15 -28 27 -35 27 -13 0 -15 -13
-3 -24 12 -12 9 -56 -4 -56 -6 0 -11 7 -10 16 0 9 -5 19 -11 21 -7 3 -13 -2
-13 -11 0 -16 -30 -22 -44 -9 -4 4 -19 7 -34 8 -20 0 -27 5 -27 20 0 23 -34
33 -45 15 -6 -10 -17 -7 -44 9 -37 23 -44 35 -26 46 6 3 10 12 9 18 0 9 -2 9
-6 0 -2 -7 -11 -13 -19 -13 -9 0 -13 -4 -10 -9 3 -5 -1 -14 -9 -21 -18 -15
-19 -9 -4 22 16 33 97 90 133 94 17 1 33 3 36 4 3 0 -2 5 -10 10 -13 8 -12 10
4 10 14 0 17 -5 12 -24 -3 -14 -2 -28 4 -31 5 -3 10 1 10 9 0 8 8 21 18 28 11
7 22 20 25 28 4 8 5 -1 2 -20 -4 -29 -3 -31 5 -12 9 21 30 31 30 14 0 -17 -42
-53 -56 -48 -7 3 -16 1 -19 -4 -4 -6 -16 -10 -28 -11 -12 0 -16 -3 -9 -6 6 -2
10 -9 7 -13 -10 -16 13 -20 25 -5 14 17 35 21 25 5 -10 -16 7 -12 28 7 19 17
20 17 14 1 -4 -12 -2 -15 9 -11 10 4 14 14 12 27 -5 23 18 53 30 41 4 -4 1
-10 -5 -12 -7 -3 -13 -10 -13 -16 1 -7 9 -2 20 11 14 17 26 22 40 17 27 -9 43
2 27 20 -6 7 -16 10 -22 6 -8 -7 -57 -8 -75 -2 -3 1 9 8 25 16 30 15 32 23 26
77 -1 8 -28 4 -37 -5 -4 -4 0 -7 9 -7 27 0 19 -19 -10 -25 -62 -13 -61 -13
-55 9 4 20 4 20 -10 2 -10 -12 -20 -16 -28 -11 -9 5 -11 4 -6 -3 4 -7 1 -12
-8 -12 -8 0 -18 5 -21 10 -4 7 -13 7 -25 0 -16 -8 -18 -8 -14 5 4 8 10 15 14
15 5 0 6 9 3 20 -4 16 0 20 18 21 13 1 27 1 32 0 4 0 7 6 7 15 0 8 4 12 10 9
6 -4 3 -16 -7 -32 -17 -26 -17 -26 6 -14 17 10 25 10 37 0 23 -19 27 -4 8 26
-17 26 -17 28 1 41 25 19 46 18 39 -1 -4 -8 -1 -15 5 -15 6 0 12 6 12 13 1 6
2 17 3 22 2 16 47 57 54 49 4 -3 1 -9 -6 -11 -15 -6 -46 -63 -38 -71 3 -3 6 0
6 7 0 8 8 11 19 8 13 -3 22 3 30 20 8 18 16 23 30 18 16 -5 18 -2 14 16 -4 14
-2 20 4 16 7 -5 9 1 5 15 -5 20 -3 21 10 10 13 -10 23 -6 60 27 33 29 48 37
56 29 8 -8 14 -4 23 15 18 39 40 35 33 -5 -5 -31 -5 -32 10 -14 9 11 16 14 16
7 0 -7 5 -9 10 -6 6 4 8 11 4 16 -3 6 0 9 7 8 8 -1 22 1 32 6 24 10 33 -1 17
-20 -12 -14 -10 -16 11 -12 13 2 18 2 12 0 -17 -6 -36 -80 -29 -109 4 -14 2
-24 -4 -24 -5 0 -10 -7 -10 -14 0 -8 -11 -27 -25 -42 -13 -14 -22 -30 -19 -35
3 -5 -2 -6 -10 -3 -10 4 -19 -2 -25 -17 -5 -13 -20 -34 -34 -45 -27 -23 -87
-42 -87 -26 0 5 -6 9 -14 9 -8 0 -12 -6 -8 -15 3 -10 1 -13 -6 -8 -7 4 -10 2
-7 -6 3 -8 -6 -25 -20 -38 -18 -17 -22 -26 -13 -31 9 -6 9 -14 0 -33 -9 -20
-8 -27 4 -37 8 -7 14 -8 12 -3 -2 5 7 20 18 32 19 20 22 21 28 6 5 -13 9 -14
21 -4 11 9 15 9 15 1 0 -6 -10 -15 -22 -20 -23 -9 -23 -9 5 -21 15 -7 27 -17
27 -22 0 -4 5 -8 10 -8 6 0 10 9 10 20 0 11 5 20 11 20 5 0 7 5 4 10 -3 6 -1
10 5 10 16 0 47 37 71 87 11 23 27 44 35 47 9 3 12 11 8 17 -4 8 -3 9 4 5 7
-4 12 -2 12 5 0 8 4 8 15 -1 18 -15 18 -14 6 27 -6 20 -6 35 0 38 5 4 9 0 9
-7 0 -23 20 15 20 40 0 12 5 22 12 22 6 0 9 -3 6 -6 -6 -6 27 -44 37 -44 3 0
1 9 -5 19 -13 25 -13 41 1 41 6 0 9 -6 6 -14 -3 -8 2 -16 14 -19 12 -3 22 0
26 9 8 22 -4 44 -22 38 -8 -3 -15 -1 -15 5 0 6 4 11 10 11 5 0 7 6 4 14 -3 8
-1 17 4 20 5 3 12 -3 15 -14 6 -22 27 -28 27 -7 -1 24 -27 48 -45 40 -13 -4
-16 -3 -11 6 5 8 19 10 37 6 24 -5 28 -4 23 9 -4 11 -1 16 10 16 9 0 16 -4 16
-10 0 -5 5 -10 10 -10 15 0 13 123 -2 138 -8 8 -9 15 -3 20 6 4 12 19 13 35 3
26 2 27 -21 16 -20 -9 -32 -8 -56 2 -35 16 -37 21 -16 39 8 7 15 19 15 26 0 8
10 24 22 36 l21 21 8 -21 c17 -44 26 -20 25 65 l-1 88 -100 13 c-145 19 -680
8 -1045 -22 -36 -3 -49 -2 -39 4 16 9 29 11 169 29 41 6 127 17 190 26 175 24
650 22 781 -3 l47 -9 1 60 c1 68 -5 83 -25 66 -10 -8 -14 -8 -14 0 0 6 5 11
11 11 6 0 9 7 6 15 -4 8 -2 17 3 20 6 4 10 1 10 -6 0 -7 3 -10 6 -6 3 3 3 15
-1 26 -5 17 -15 21 -54 21 -26 0 -53 -6 -60 -12 -11 -11 -13 -9 -8 10 4 18 2
22 -9 18 -8 -3 -17 1 -21 10 -4 10 -13 14 -29 10 -40 -10 -53 1 -43 37 13 44
12 47 -13 47 -18 0 -20 -2 -8 -10 21 -13 5 -24 -18 -11 -11 6 -23 7 -26 3 -4
-4 -5 7 -1 23 5 26 4 28 -7 15 -7 -9 -21 -14 -31 -12 -18 4 -18 3 -1 -24 18
-26 18 -27 -1 -17 -29 15 -98 26 -91 15 11 -17 -46 -4 -60 15 -10 13 -16 15
-22 6 -5 -8 -13 -9 -22 -3 -21 13 -33 12 -24 -2 7 -11 -10 -9 -48 7 -13 5 -18
2 -18 -11 0 -15 -2 -16 -9 -5 -7 11 -11 10 -20 -6 -5 -11 -24 -26 -41 -33 -16
-7 -30 -17 -30 -22 0 -6 -11 -7 -24 -4 -16 4 -26 1 -30 -9 -3 -8 -10 -15 -17
-15 -6 0 -8 7 -5 16 3 8 2 12 -4 9 -6 -3 -10 -12 -10 -20 0 -7 -6 -16 -12 -19
-7 -3 0 -4 16 -3 16 1 31 -4 33 -11 3 -7 -1 -10 -9 -7 -8 3 -36 -3 -62 -15
-58 -24 -66 -25 -67 -2 0 10 -3 12 -6 5 -2 -7 -11 -13 -18 -13 -8 0 -21 -8
-31 -17 -16 -16 -16 -16 -9 6 l7 24 -30 -22 c-28 -20 -31 -20 -35 -4 -3 14 -7
10 -17 -14 -12 -34 -24 -41 -35 -23 -4 7 -13 6 -26 -1 -15 -7 -27 -6 -50 5
-25 13 -30 13 -26 2 3 -8 -1 -17 -10 -20 -11 -4 -14 -2 -10 9 4 8 2 17 -3 20
-5 3 -11 -4 -15 -15 -7 -22 -20 -26 -30 -10 -5 8 -11 7 -21 -1 -11 -9 -18 -9
-26 -1 -7 7 -19 12 -27 11 -11 0 -12 -2 -3 -6 20 -8 14 -23 -11 -23 -13 0 -28
-5 -35 -12 -9 -9 -15 -9 -24 0 -14 14 -52 16 -43 3 8 -15 -29 -23 -56 -12 -13
5 -18 10 -11 10 7 1 10 6 7 11 -3 6 -17 7 -30 4 -12 -3 -26 -1 -30 5 -3 6 -10
9 -15 6 -4 -3 -11 2 -14 11 -5 13 -9 14 -21 4 -12 -10 -15 -9 -15 4 0 9 -6 16
-12 16 -9 0 -8 4 2 10 12 8 11 10 -8 10 -12 0 -21 5 -20 11 2 6 -3 14 -11 17
-8 2 -11 0 -8 -5 8 -12 -21 -55 -32 -48 -5 2 -6 17 -4 32 4 26 3 26 -10 11
-18 -23 -39 -23 -59 1 -11 13 -27 18 -58 16 -36 -2 -43 1 -53 22 -7 16 -17 23
-28 20 -12 -3 -16 0 -12 10 3 9 -2 16 -14 19 -11 3 -30 19 -42 35 -12 16 -29
29 -37 29 -11 0 -14 6 -9 23 7 21 6 21 -11 5 -14 -14 -15 -20 -4 -32 7 -9 8
-16 2 -16 -14 0 -25 -32 -12 -40 5 -3 -10 -6 -35 -6 -25 1 -45 4 -45 8 0 14
-18 8 -24 -7 -9 -25 4 -44 38 -54 26 -7 28 -10 12 -16 -10 -4 -21 -4 -25 1 -7
11 -31 17 -31 8 0 -4 8 -13 18 -20 15 -12 15 -15 2 -24 -21 -14 -30 -12 -30 6
0 8 -5 12 -10 9 -14 -9 -3 -24 28 -38 l27 -11 -29 -4 c-22 -3 -26 -6 -16 -12
8 -5 11 -12 8 -15 -4 -4 -18 1 -32 12 -30 21 -44 48 -21 39 13 -4 14 -2 5 14
-16 29 -31 34 -37 11 -5 -19 -14 -25 -29 -18 -3 1 -14 -13 -23 -32 -14 -26
-19 -30 -24 -17 -4 9 -16 16 -27 16 -11 0 -20 5 -20 10 0 6 6 10 14 10 7 0 16
9 19 20 3 11 10 20 16 20 8 0 9 -6 1 -19 -13 -26 -13 -28 5 -28 8 0 14 7 13
16 -2 10 4 15 15 15 9 -1 17 5 17 13 0 8 -8 13 -17 11 -10 -1 -24 1 -31 5 -7
5 -14 2 -18 -8 -4 -9 -13 -13 -23 -11 -9 3 -22 1 -30 -3 -13 -8 -13 -12 0 -27
9 -11 9 -15 2 -10 -7 4 -13 2 -13 -3 0 -6 -4 -11 -10 -11 -5 0 -11 15 -11 33
-1 22 -4 15 -9 -23 -5 -30 -6 -59 -3 -64 3 -5 0 -6 -8 -4 -8 3 -14 12 -14 22
0 9 -5 20 -12 24 -8 5 -9 21 -3 50 4 25 3 45 -2 48 -5 3 -7 12 -4 20 3 8 1 27
-5 42 -10 26 -11 26 -21 7 -7 -11 -19 -26 -27 -33 -14 -11 -13 -12 7 -7 27 8
29 -6 2 -23 -11 -7 -20 -20 -19 -30 0 -15 1 -14 8 2 10 26 25 3 16 -25 -5 -14
-12 -18 -26 -14 -16 5 -19 1 -19 -22 0 -15 -4 -23 -8 -18 -12 17 -39 11 -60
-13 -11 -12 -25 -22 -32 -22 -6 0 -10 -6 -7 -12 2 -7 10 -12 16 -11 6 2 11 -1
11 -6 0 -5 -12 -8 -26 -8 -18 0 -24 4 -19 14 4 12 0 14 -15 10 -11 -3 -23 -1
-26 4 -3 5 -15 -3 -27 -18 -34 -44 -61 -58 -51 -25 4 10 3 13 -3 6 -24 -30
-79 -21 -66 12 4 10 0 12 -11 8 -10 -4 -16 -1 -16 7 0 9 -3 10 -8 3 -9 -14
-45 -27 -37 -13 4 6 -8 9 -34 8 -23 -2 -41 -7 -41 -12 0 -5 -7 -4 -15 3 -8 7
-22 10 -30 6 -8 -3 -15 0 -15 6 0 6 -3 8 -6 5 -4 -3 -15 -2 -25 4 -11 6 -19 6
-19 0 0 -5 -21 -8 -47 -7 -27 2 -50 -1 -53 -5 -10 -14 -115 14 -140 38 -14 13
-33 22 -42 19 -17 -4 -22 4 -19 31 1 8 -10 11 -33 9 -19 -1 -33 1 -30 6 3 4
14 8 24 8 10 0 21 4 24 9 8 12 -41 20 -52 9 -6 -6 -12 -6 -16 0 -3 6 -2 13 4
17 5 3 10 11 10 17 0 6 -11 3 -25 -6 -30 -20 -49 -21 -42 -2 4 9 -1 15 -11 16
-55 3 -70 6 -65 14 4 5 -17 7 -46 4 -28 -3 -51 -1 -51 3 0 5 -9 9 -20 9 -11 0
-20 7 -20 15 0 21 -28 19 -75 -5 -41 -21 -101 -28 -90 -10 3 6 17 10 31 10 17
0 24 5 24 20 0 20 -15 25 -44 14 -8 -3 -12 -12 -9 -20 3 -8 0 -14 -5 -14 -6 0
-13 -9 -17 -19 -4 -14 -11 -18 -23 -14 -10 4 -12 8 -4 11 23 7 12 28 -20 39
-35 13 -78 10 -122 -7 -15 -5 -32 -8 -37 -5 -5 3 -19 1 -31 -6 -12 -7 -40 -12
-63 -13 -30 -1 -41 3 -43 17 -2 10 3 17 12 17 10 0 13 6 9 16 -3 9 5 27 22 44
16 17 26 32 23 35 -3 3 -17 -8 -31 -25z m843 -384 c80 -4 199 -16 265 -27 66
-12 150 -25 188 -32 37 -6 67 -15 67 -20 0 -6 -18 -7 -42 -3 -291 42 -993 56
-1211 23 -64 -10 -156 -29 -202 -42 -96 -28 -105 -29 -105 -14 0 11 75 47 130
61 97 26 271 48 414 53 88 3 161 7 162 8 4 4 184 0 334 -7z m3225 -56 c7 0 15
7 19 15 3 8 10 15 17 15 6 0 9 -7 5 -15 -6 -17 19 -21 29 -5 4 7 13 7 24 0 10
-5 22 -5 27 0 5 4 27 5 49 0 22 -4 34 -8 26 -9 -11 -1 -11 -4 -1 -16 10 -12
10 -15 -3 -15 -8 0 -18 7 -21 16 -4 9 -9 14 -12 11 -3 -3 0 -14 7 -25 10 -16
9 -24 -9 -50 -12 -16 -22 -35 -22 -40 0 -15 -41 -42 -62 -42 -10 0 -18 7 -18
17 0 9 -3 13 -6 10 -9 -8 -44 11 -44 23 0 6 7 10 16 10 8 0 12 5 9 11 -4 6
-13 8 -21 5 -8 -3 -11 0 -7 10 3 9 -2 14 -16 14 -12 0 -24 7 -27 15 -4 8 -12
15 -20 15 -17 0 -18 17 -1 23 9 3 8 8 -3 22 -14 16 -13 17 7 11 13 -4 24 -2
30 6 6 9 9 7 11 -9 2 -13 9 -23 17 -23z m-840 -160 c3 -5 21 -17 40 -26 22
-10 32 -21 28 -30 -3 -8 1 -14 11 -14 9 0 24 -8 34 -17 34 -33 62 -43 115 -43
67 0 137 35 189 93 l36 42 7 -30 c3 -16 11 -38 16 -48 8 -15 6 -20 -10 -24
-11 -3 -18 -10 -15 -17 5 -12 -84 -50 -103 -44 -6 2 -19 -7 -29 -20 -12 -14
-39 -27 -77 -34 -52 -11 -60 -11 -71 4 -8 11 -20 15 -35 11 -15 -4 -21 -1 -19
8 2 8 -14 17 -43 25 -25 6 -59 19 -77 28 -17 9 -38 16 -46 16 -8 0 -18 9 -21
20 -3 11 -11 20 -16 20 -5 0 -9 7 -9 15 0 8 -6 12 -14 9 -11 -4 -13 0 -9 15 6
24 32 34 67 25 20 -5 26 -2 26 10 0 18 15 22 25 6z m-3364 -51 c24 -24 25 -30
13 -46 -7 -10 -14 -26 -14 -37 0 -15 3 -16 15 -6 23 19 18 -4 -5 -25 -32 -29
-24 -43 28 -51 26 -4 55 -7 65 -5 13 2 17 -5 17 -31 0 -45 71 -118 95 -98 13
11 17 7 30 -23 11 -27 19 -35 33 -31 14 5 15 4 2 -5 -18 -13 -6 -27 33 -36 19
-5 27 -3 27 6 1 10 5 8 15 -5 7 -10 18 -15 23 -12 5 3 15 -6 22 -19 7 -14 19
-25 27 -25 7 0 13 -6 13 -14 0 -9 7 -12 23 -9 16 4 19 2 8 -5 -12 -9 -12 -12
1 -26 9 -8 18 -13 20 -10 3 2 19 -11 36 -31 20 -22 37 -33 47 -29 10 4 14 2
10 -7 -8 -23 8 -37 50 -42 63 -8 93 -18 99 -33 7 -17 36 -19 36 -1 1 8 4 7 13
-3 12 -15 47 -24 45 -11 -2 21 3 41 12 41 5 0 7 -7 4 -15 -7 -18 36 -21 68 -4
13 7 23 7 27 1 9 -13 81 -25 81 -13 0 5 -6 11 -12 14 -22 8 42 27 69 21 19 -5
24 -3 21 7 -4 13 -20 14 -88 7 -14 -2 -28 -7 -31 -12 -8 -11 -49 2 -49 16 0 5
7 7 16 4 25 -10 37 4 17 20 -26 19 -38 17 -51 -8 -6 -13 -11 -17 -11 -10 -1 9
-7 10 -18 4 -23 -11 -74 -9 -92 2 -10 7 -12 5 -6 -5 4 -8 -2 -4 -14 9 -12 12
-25 22 -30 22 -5 0 -6 12 -3 27 5 25 6 25 18 8 8 -10 14 -15 14 -9 0 5 7 0 15
-10 10 -13 15 -15 15 -6 0 16 15 3 15 -13 1 -7 7 -11 14 -9 7 1 19 -2 27 -8
11 -10 12 -6 4 19 -9 33 5 54 21 30 5 -8 9 -9 9 -3 0 5 -5 15 -11 21 -9 9 -7
10 10 6 11 -3 21 -9 21 -14 0 -5 6 -6 14 -3 8 3 17 1 21 -5 3 -6 17 -11 31
-11 13 0 29 -9 36 -20 14 -22 47 -27 64 -10 8 8 15 6 24 -5 7 -8 20 -15 29
-16 10 0 11 -2 4 -6 -7 -2 -13 -11 -13 -18 0 -7 6 -16 13 -18 6 -3 -3 -6 -20
-6 -18 -1 -33 -5 -33 -11 0 -5 -7 -7 -15 -4 -8 4 -15 1 -15 -6 0 -25 -54 -58
-66 -39 -3 6 -10 6 -17 1 -14 -11 -47 -12 -47 -2 0 4 -6 7 -14 7 -8 0 -14 -5
-13 -11 1 -6 -10 -11 -25 -11 -16 1 -28 -4 -28 -11 0 -8 -13 -9 -42 -4 -24 5
-45 6 -47 4 -2 -2 2 -4 10 -4 11 -1 10 -4 -3 -14 -15 -11 -6 -13 62 -12 44 1
80 -3 80 -7 0 -5 7 -1 16 8 9 9 24 13 35 10 14 -5 19 -1 19 12 0 10 3 14 8 8
8 -12 77 -14 88 -2 4 4 -3 7 -16 7 -46 0 -5 19 50 24 48 4 55 7 53 24 -3 24
24 37 43 21 18 -15 18 -29 -1 -29 -8 0 -15 -4 -15 -10 0 -5 6 -10 14 -10 8 0
16 -6 19 -13 3 -8 14 -13 26 -12 22 1 42 15 23 15 -21 0 -13 15 17 33 22 13
31 14 35 5 4 -9 5 -8 5 2 -2 34 2 50 12 50 6 0 9 -7 5 -15 -8 -21 16 -19 42 5
11 11 27 17 35 15 7 -3 22 3 32 15 19 21 8 29 -13 8 -17 -17 -24 -5 -13 23 5
13 10 20 10 15 1 -6 7 -1 15 10 8 10 10 21 5 25 -5 3 0 15 11 27 12 12 18 27
14 34 -4 6 -3 8 3 5 6 -4 25 0 42 9 18 9 35 13 38 10 3 -3 -5 -10 -18 -15 -22
-8 -76 -61 -64 -61 3 0 1 -9 -5 -20 -13 -25 -3 -26 23 -2 19 17 20 16 8 -7 -8
-14 -9 -27 -3 -33 6 -6 14 2 21 21 12 28 41 34 41 9 0 -6 -7 -8 -14 -5 -10 4
-13 1 -9 -9 3 -7 12 -14 19 -14 8 0 17 -7 20 -15 4 -8 13 -15 21 -15 10 0 12
6 7 22 -6 20 -5 21 8 10 21 -17 30 -62 12 -55 -8 3 -16 -5 -20 -21 -3 -14 -10
-26 -16 -26 -5 0 -6 -5 -3 -11 5 -6 12 -4 21 8 7 10 14 14 14 10 0 -14 -33
-67 -42 -67 -4 0 -8 -5 -8 -12 0 -6 -6 -19 -13 -27 -8 -9 -20 -32 -27 -51 -17
-45 -40 -72 -56 -66 -9 3 -11 -1 -7 -11 5 -12 2 -15 -10 -10 -11 4 -14 2 -11
-7 6 -15 -34 -48 -48 -40 -4 3 -8 -2 -8 -10 0 -16 -11 -20 -39 -16 -8 1 -12
-4 -8 -13 4 -11 -11 -22 -53 -41 -100 -45 -206 -69 -302 -67 -50 0 -90 -4 -93
-10 -8 -12 -223 -10 -231 3 -3 5 -11 5 -18 -1 -13 -11 -126 -3 -126 9 0 3 -28
7 -62 8 -80 2 -175 23 -258 55 -36 14 -61 26 -55 26 5 1 -8 11 -30 22 -42 23
-107 72 -163 123 -51 47 -117 155 -142 232 -12 38 -27 83 -32 99 -6 17 -13 89
-15 160 -4 101 -2 144 11 195 22 86 62 168 103 207 30 30 35 31 65 21 17 -6
44 -24 59 -39z m775 -17 c101 -89 195 -108 278 -54 23 15 47 33 54 39 7 7 19
13 27 13 7 0 15 5 17 11 3 9 10 9 26 0 15 -8 22 -8 22 -1 0 6 5 8 10 5 6 -3
10 -1 10 4 0 6 5 11 12 11 6 0 9 -3 5 -6 -3 -4 1 -13 9 -21 13 -13 13 -18 1
-36 -7 -12 -20 -24 -28 -28 -42 -22 -84 -39 -97 -39 -9 0 -23 -7 -32 -15 -19
-17 -100 -29 -100 -15 0 5 -10 10 -22 9 -76 -1 -200 27 -233 53 -84 66 -92 78
-55 78 11 0 20 5 20 10 0 6 -5 10 -11 10 -5 0 -8 4 -5 9 11 18 46 4 92 -37z
m660 -1157 c6 -48 9 -59 17 -72 5 -8 4 -13 -3 -13 -6 0 -8 -10 -4 -25 4 -16 2
-25 -6 -25 -6 0 -8 -4 -5 -10 3 -5 -1 -10 -9 -10 -9 0 -16 -7 -16 -16 0 -8 -4
-12 -10 -9 -5 3 -10 1 -10 -4 0 -6 -9 -11 -20 -11 -19 0 -43 -36 -34 -51 1 -3
-11 -4 -29 -3 -18 2 -24 1 -14 -2 21 -7 22 -18 1 -35 -8 -7 -13 -21 -11 -31 3
-10 1 -16 -3 -13 -5 3 -12 1 -15 -5 -4 -6 -16 -8 -27 -4 -17 5 -20 3 -15 -10
4 -10 1 -16 -8 -16 -18 0 -19 -12 -4 -27 9 -9 6 -10 -10 -6 -16 4 -20 2 -16
-9 3 -8 -2 -22 -12 -30 -18 -16 -22 -18 -43 -18 -6 0 -9 -3 -8 -7 3 -16 -14
-43 -27 -43 -7 0 -17 -17 -22 -37 -8 -34 -12 -38 -36 -35 -19 2 -27 -1 -27
-12 0 -8 -4 -18 -10 -21 -5 -3 -7 0 -5 8 8 18 -28 49 -48 41 -10 -3 -15 -10
-12 -15 3 -4 12 -6 20 -3 22 9 28 -19 10 -52 -10 -19 -15 -23 -15 -11 0 19
-20 24 -21 5 0 -10 -2 -10 -6 0 -2 6 -9 12 -14 12 -6 0 -7 -5 -3 -11 3 -6 0
-15 -7 -20 -11 -8 -10 -12 6 -25 11 -8 19 -21 17 -29 -2 -9 9 -15 30 -18 26
-3 24 -4 -13 -5 -32 -1 -49 -7 -53 -18 -8 -22 -28 -6 -21 17 5 16 1 19 -29 19
-66 0 -76 -19 -39 -77 8 -12 10 -24 5 -27 -5 -3 -14 6 -20 19 -12 25 -32 34
-32 14 0 -5 -4 -7 -10 -4 -5 3 -10 11 -10 16 0 6 5 7 10 4 12 -7 12 -3 4 19
-3 9 -10 13 -15 10 -5 -2 -18 0 -29 6 -34 18 -42 7 -15 -22 14 -15 25 -33 25
-40 1 -23 28 -51 45 -45 9 4 15 1 15 -7 0 -8 12 -12 36 -11 19 0 38 -3 40 -7
3 -5 -15 -7 -40 -6 -25 0 -46 4 -46 8 0 4 -13 6 -29 5 -19 -1 -28 3 -27 13 1
9 -10 16 -28 18 -22 2 -26 0 -17 -9 15 -15 14 -27 -4 -27 -9 0 -15 9 -15 21 0
14 -5 19 -17 17 -10 -2 -17 -10 -15 -17 1 -7 -3 -19 -9 -27 -9 -11 -8 -18 5
-32 9 -10 13 -22 9 -25 -12 -13 -23 -7 -23 13 0 11 -7 20 -15 20 -11 0 -12 -6
-7 -22 12 -35 9 -44 -20 -68 -30 -23 -38 -43 -14 -34 8 3 17 0 21 -6 5 -8 11
-8 22 1 11 10 16 10 23 0 12 -20 1 -46 -31 -77 -16 -15 -29 -34 -29 -41 0 -7
-6 -10 -16 -6 -13 5 -15 14 -10 44 5 32 3 40 -14 49 -15 8 -19 17 -15 31 4 11
0 26 -10 35 -11 12 -16 32 -15 68 2 73 2 76 -17 76 -13 0 -14 3 -6 11 15 15 5
39 -12 33 -7 -3 -16 -1 -20 5 -4 7 0 8 10 5 13 -6 15 1 9 52 -4 33 -11 61 -16
62 -16 7 -8 32 11 32 12 0 21 10 25 28 4 15 9 35 12 44 4 13 1 16 -10 12 -15
-6 -21 6 -17 30 1 5 -5 4 -13 -4 -14 -11 -16 -6 -16 40 0 38 -6 60 -22 83 -13
17 -21 42 -20 54 3 16 -2 23 -14 23 -16 0 -16 2 2 19 10 10 22 17 27 14 13 -8
7 62 -8 84 -19 27 -2 73 27 73 11 0 16 -5 13 -11 -4 -6 0 -9 11 -7 13 2 19 -3
18 -14 -2 -20 11 -24 21 -8 3 6 15 10 25 10 17 0 18 4 10 26 -14 35 -13 36 10
29 14 -5 20 -2 20 10 0 9 -4 13 -10 10 -5 -3 -10 1 -10 10 0 12 5 15 16 11 9
-3 22 -6 30 -6 9 0 13 -4 9 -9 -3 -5 -1 -12 5 -16 5 -3 10 -1 10 5 0 7 8 9 22
5 17 -6 20 -4 15 9 -7 17 1 19 56 18 15 0 27 4 27 10 0 5 7 8 15 4 8 -3 14 -2
14 2 -5 34 3 47 31 49 18 1 28 -2 25 -8 -4 -5 -11 -7 -16 -4 -5 4 -9 2 -9 -3
0 -13 25 -33 32 -26 4 3 21 -2 39 -11 29 -15 31 -15 26 -1 -4 10 -1 16 6 16 7
0 23 9 36 21 12 12 25 18 29 14 3 -3 2 -9 -3 -13 -6 -4 -17 -16 -25 -26 -14
-18 -14 -19 10 -6 29 15 93 23 85 10 -3 -4 4 -6 14 -3 12 3 17 11 14 19 -6 17
9 18 25 2 14 -14 71 -13 85 1 7 7 15 7 24 0 9 -8 14 -7 19 5 3 9 12 16 19 16
7 0 26 7 41 15 26 13 29 13 32 0 4 -17 22 -20 22 -4 0 6 7 9 15 6 8 -4 17 -2
20 3 3 5 16 8 28 6 12 -1 33 0 47 5 36 10 42 7 46 -26z m1893 -612 c-6 -35 0
-36 61 -15 12 4 13 2 3 -9 -18 -18 -16 -34 1 -20 12 10 13 8 9 -9 -4 -15 -2
-19 10 -14 20 7 33 -16 16 -28 -10 -6 -7 -7 10 -3 22 7 24 5 18 -24 -6 -29 7
-45 15 -19 3 7 10 8 17 4 11 -7 11 -10 0 -17 -11 -6 -6 -16 20 -43 21 -21 30
-39 26 -47 -5 -7 -4 -10 3 -5 6 3 14 1 18 -5 7 -12 -10 -10 -48 6 -11 4 -18 3
-18 -4 0 -6 4 -11 9 -11 5 0 11 -7 15 -15 9 -25 -11 -17 -41 15 -28 30 -29 30
-29 8 0 -13 3 -25 7 -28 3 -3 3 -14 -1 -25 -7 -19 -7 -19 -19 3 -15 28 -28 28
-36 1 -7 -20 -7 -20 -26 2 -10 12 -19 31 -19 42 0 24 -39 67 -62 67 -10 0 -18
5 -18 10 0 6 5 10 11 10 5 0 7 5 3 12 -6 9 -9 9 -12 0 -2 -7 -10 -12 -18 -12
-8 0 -14 -8 -15 -17 0 -14 -2 -13 -9 5 -10 23 -25 29 -35 12 -3 -5 -1 -10 4
-10 6 0 11 -8 11 -17 0 -14 -2 -15 -9 -4 -5 8 -11 9 -15 3 -3 -5 3 -17 14 -27
31 -28 24 -39 -9 -15 -16 11 -35 19 -42 18 -6 -2 -14 3 -16 10 -3 7 1 11 8 10
8 -2 15 7 17 20 2 12 9 22 16 22 16 0 13 47 -3 63 -6 6 -11 14 -11 18 0 8 58
18 63 10 2 -3 2 0 1 7 -5 19 7 42 21 42 7 0 20 -10 28 -22 l16 -23 -2 25 c-1
18 3 25 15 24 10 -1 14 4 11 12 -3 8 0 14 6 14 6 0 10 -3 10 -7z m-1939 -23
c0 -5 -5 -10 -11 -10 -5 0 -7 -5 -3 -12 4 -6 -1 -17 -10 -24 -10 -7 -15 -17
-11 -23 8 -14 26 -14 23 0 -2 6 3 14 10 16 6 3 12 0 12 -7 0 -6 5 -8 11 -4 7
4 10 1 7 -7 -3 -8 -10 -14 -15 -14 -19 0 -25 -12 -8 -18 8 -4 15 -2 15 2 0 5
7 11 15 15 11 4 14 -1 13 -19 -1 -14 -6 -25 -10 -25 -4 0 -8 -7 -8 -16 0 -13
7 -15 35 -11 26 4 33 3 28 -6 -12 -20 -14 -47 -2 -47 5 0 7 5 4 10 -3 6 -2 10
3 10 6 0 13 -7 16 -16 5 -13 9 -14 21 -4 13 11 14 10 9 -6 -4 -10 -16 -27 -28
-36 -11 -9 -17 -20 -14 -24 4 -4 23 10 42 30 l34 37 11 -32 c10 -29 9 -34 -6
-42 -10 -6 -37 -30 -59 -53 -23 -24 -44 -44 -48 -44 -13 0 -5 28 15 54 11 14
18 26 15 27 -33 5 -69 0 -83 -12 -10 -8 -29 -20 -42 -27 -21 -12 -23 -12 -18
2 8 20 -6 21 -23 1 -6 -8 -8 -20 -4 -26 4 -7 3 -9 -4 -5 -6 3 -13 2 -17 -4 -4
-6 -11 -8 -16 -5 -5 4 -6 -8 -4 -27 5 -27 4 -29 -4 -11 -7 15 -17 21 -36 19
-19 -3 -25 1 -21 10 11 28 -12 13 -55 -36 -30 -34 -46 -46 -51 -37 -6 9 -12 8
-22 -5 -19 -25 -27 -22 -20 7 3 14 3 25 -1 25 -11 0 -39 -32 -52 -59 -6 -14
-12 -20 -12 -14 -2 21 -51 -7 -51 -29 0 -11 5 -16 10 -13 6 4 -2 -16 -17 -44
-15 -28 -32 -51 -36 -51 -5 0 -5 5 -2 10 3 6 -3 10 -14 10 -10 0 -21 -6 -24
-12 -3 -10 -7 -10 -19 0 -12 10 -17 10 -27 -1 -6 -8 -8 -17 -4 -20 3 -4 -5
-17 -18 -28 -24 -22 -24 -22 -1 -16 14 3 22 1 22 -8 0 -7 -11 -16 -25 -19 -24
-6 -35 -26 -14 -26 5 0 7 -5 3 -11 -4 -8 -9 -7 -15 2 -8 11 -13 9 -28 -8 -18
-22 -48 -33 -37 -14 3 5 -1 12 -10 15 -8 3 -12 2 -9 -4 3 -6 1 -10 -5 -10 -17
0 -7 -35 10 -36 24 -2 60 -16 60 -23 0 -4 -9 -13 -20 -21 -20 -15 -29 -47 -10
-35 16 10 40 -15 40 -41 0 -13 -9 -29 -20 -36 -26 -16 -25 -25 1 -23 28 2 51
43 37 68 -7 14 -5 22 9 32 24 18 36 9 29 -21 -4 -14 -2 -24 4 -24 14 0 13 -66
-1 -93 -9 -16 -9 -22 0 -25 20 -7 12 -42 -11 -52 -13 -5 -18 -9 -12 -9 13 -1
24 -71 12 -71 -9 0 -13 9 -22 53 -8 35 -21 35 -34 -2 -11 -32 -5 -47 20 -52
13 -3 15 -8 8 -19 -9 -13 -11 -13 -19 -1 -12 18 -45 6 -37 -14 3 -8 9 -22 12
-30 3 -8 1 -15 -5 -15 -6 0 -11 5 -11 11 0 6 -7 8 -16 5 -12 -4 -15 -2 -10 9
3 10 0 15 -11 15 -15 0 -15 2 0 18 10 10 17 25 17 33 0 10 -3 10 -8 3 -4 -7
-16 -12 -27 -12 -39 1 -44 -2 -38 -19 6 -16 5 -16 -10 -4 -9 7 -17 10 -18 5 0
-5 -4 0 -9 11 -8 19 -9 19 -9 -2 -1 -12 -7 -23 -13 -25 -9 -3 -8 -9 4 -21 21
-21 35 -22 18 -2 -18 22 -8 27 18 9 22 -15 32 -41 11 -28 -9 5 -10 -1 -5 -19
5 -20 1 -31 -13 -43 -20 -18 -18 -44 4 -44 7 0 16 -6 18 -12 4 -10 8 -10 14
-2 12 17 46 25 63 14 12 -7 12 -12 2 -22 -9 -9 -12 -8 -12 6 0 10 -5 14 -11
10 -7 -4 -8 -9 0 -17 5 -5 7 -22 4 -37 -3 -15 0 -31 6 -34 14 -9 15 -56 1 -56
-5 0 -10 -4 -10 -10 0 -5 6 -10 14 -10 19 0 31 57 16 75 -16 19 -5 49 15 41
19 -7 38 27 24 41 -7 7 -6 19 2 36 12 27 29 36 29 17 0 -5 15 -10 34 -10 41 0
51 -24 31 -78 -13 -37 -14 -37 -14 -8 -1 29 -2 29 -17 10 -11 -13 -17 -15 -20
-7 -10 23 -32 -11 -48 -72 -8 -31 -16 -58 -18 -58 -2 -1 -13 -8 -25 -14 -13
-7 -30 -13 -38 -13 -22 0 -19 -8 15 -37 22 -18 29 -31 24 -45 -5 -17 -3 -19
15 -13 20 6 20 5 9 -20 -10 -22 -9 -28 3 -36 24 -15 29 -10 29 26 0 26 4 35
18 36 13 0 12 2 -5 9 -25 10 -30 25 -13 35 26 16 50 -48 27 -71 -4 -4 -7 -18
-7 -30 0 -13 -4 -26 -10 -29 -13 -8 -13 -25 0 -25 6 0 14 8 17 18 4 9 15 28
25 41 l18 24 0 -24 c0 -13 -9 -30 -20 -37 -11 -6 -17 -18 -14 -26 3 -9 -6 -17
-26 -25 -24 -8 -31 -16 -29 -33 2 -13 -3 -34 -10 -46 -7 -13 -10 -26 -7 -30 3
-3 6 0 6 6 0 7 5 12 11 12 5 0 7 -5 4 -10 -4 -6 -4 -19 0 -28 7 -14 9 -13 14
7 4 14 12 26 19 29 21 7 13 -26 -13 -54 -19 -20 -25 -23 -25 -10 0 38 -34 8
-42 -37 -7 -35 9 -46 18 -12 4 16 13 25 25 25 26 0 26 -46 -1 -60 -23 -12 -24
-21 -10 -72 12 -42 45 -64 38 -24 -4 18 0 26 16 30 27 7 28 4 16 -28 -5 -15
-10 -41 -10 -57 0 -32 -14 -39 -25 -11 -6 16 -7 16 -17 -2 -8 -15 -7 -22 6
-32 20 -14 18 -55 -2 -62 -7 -2 -16 5 -19 17 -7 27 -28 27 -30 0 -2 -21 -20
-49 -32 -49 -21 0 11 172 38 204 7 8 6 24 -3 49 -16 48 -30 61 -21 20 4 -20 3
-33 -4 -33 -16 0 -24 39 -15 78 4 21 8 44 9 52 1 8 5 23 9 33 5 10 3 23 -4 32
-7 9 -10 19 -6 23 8 7 13 9 43 11 15 1 15 3 -3 15 -12 9 -23 11 -29 5 -14 -14
-25 -11 -25 7 0 8 4 13 9 10 4 -3 16 0 26 8 16 12 16 14 1 44 -9 18 -21 32
-26 32 -6 0 -10 8 -10 18 0 25 -43 62 -60 52 -8 -5 -22 -2 -35 8 -18 14 -20
21 -12 43 8 20 6 36 -12 75 -13 27 -27 58 -32 69 -12 27 -8 65 8 65 21 0 15
18 -7 22 -25 4 -22 24 3 21 12 -2 17 4 17 22 0 22 -2 24 -26 15 -21 -8 -25 -8
-21 4 3 7 0 19 -6 25 -6 6 -7 11 -3 11 5 0 3 6 -3 14 -10 12 -8 17 8 25 23 13
17 46 -7 36 -11 -4 -12 -2 -4 7 8 11 11 273 2 273 -1 0 -3 10 -4 22 -2 13 2
19 9 17 8 -4 11 10 9 45 -2 42 1 51 17 56 19 6 27 25 10 25 -5 0 -7 9 -4 20 3
11 0 20 -6 20 -7 0 -6 8 4 24 11 16 15 43 13 84 -2 61 11 92 38 92 7 0 21 11
30 25 10 15 26 25 40 25 14 0 30 10 40 24 8 14 28 28 44 31 16 3 34 13 41 21
10 12 14 12 20 2 4 -7 11 -9 15 -5 4 4 2 13 -4 19 -20 20 -14 45 16 68 15 12
27 25 26 28 -2 16 9 42 18 42 6 0 8 -7 4 -15 -3 -8 -1 -15 5 -15 7 0 9 10 5
24 -3 14 -1 28 4 31 6 4 8 11 5 16 -4 5 -2 9 3 9 16 0 22 -13 12 -25 -13 -16
-2 -45 16 -45 8 0 14 4 14 9 0 16 40 24 55 11 8 -6 24 -9 35 -5 16 5 23 2 27
-14 7 -28 26 -8 39 44 5 22 15 39 21 38 7 -2 14 6 18 16 3 10 18 24 33 31 48
25 62 41 52 60 -9 17 -4 30 11 30 4 0 9 -8 11 -17 2 -13 9 -9 26 17 21 33 22
34 16 7 -3 -15 -1 -33 5 -41 6 -7 8 -22 5 -32 -6 -18 -6 -18 11 -3 16 16 16
18 0 43 -12 17 -13 26 -5 26 6 0 10 6 7 13 -2 6 2 20 11 29 11 14 19 15 35 7
16 -9 22 -8 29 5 10 18 28 22 28 6z m14 -1207 c21 20 30 22 24 5 -3 -7 3 -21
13 -31 17 -18 17 -18 28 0 6 10 11 12 11 6 0 -7 5 -13 11 -13 6 0 9 7 5 15 -3
9 0 15 8 15 8 0 17 6 19 13 3 6 3 -3 0 -20 -4 -26 -2 -33 11 -33 9 0 15 5 14
11 -2 6 3 14 10 16 10 4 12 -3 7 -31 -6 -28 -4 -36 7 -36 19 0 58 34 72 63 8
16 22 23 49 25 41 4 45 -3 22 -35 -18 -25 -6 -38 26 -28 11 4 26 2 34 -5 10
-8 17 -6 29 12 9 12 16 19 16 14 0 -5 7 -3 15 4 12 10 15 10 15 -4 0 -9 -6
-16 -12 -16 -7 0 -5 -5 5 -11 23 -13 57 9 35 22 -8 6 -9 9 -2 9 6 0 17 -6 23
-14 17 -20 58 -28 82 -16 15 8 24 8 34 0 9 -7 15 -8 20 -1 3 6 34 10 68 9 50
-1 66 -5 80 -22 15 -17 18 -17 13 -4 -3 10 -2 17 2 16 12 -3 57 14 65 26 5 7
12 5 22 -8 13 -17 15 -17 40 9 16 15 34 24 42 21 8 -3 19 -6 24 -6 5 0 9 -7 9
-15 0 -8 5 -15 10 -15 6 0 10 7 10 15 0 20 56 20 77 0 19 -20 24 -15 25 24 1
35 23 42 33 12 4 -12 12 -18 21 -14 7 3 14 0 14 -6 0 -6 7 -11 15 -11 8 0 15
5 15 12 0 6 6 3 14 -8 14 -18 15 -18 22 -1 3 10 13 16 20 13 7 -3 16 -1 19 4
9 14 31 1 44 -26 12 -28 31 -24 31 7 0 14 4 18 13 12 6 -4 17 -8 22 -8 6 0 9
-8 9 -18 -2 -22 8 -22 29 3 20 24 31 25 51 5 8 -8 22 -15 30 -15 9 0 16 -7 16
-16 0 -8 4 -13 9 -9 6 3 6 18 0 38 l-9 32 30 -34 c29 -34 29 -35 50 -16 11 10
20 16 20 13 0 -7 -48 -58 -55 -59 -17 0 -35 -13 -35 -26 0 -10 -7 -13 -22 -8
-21 6 -22 5 -5 -8 20 -17 22 -27 4 -27 -7 0 -17 -10 -22 -22 -7 -17 -18 -23
-42 -23 -17 0 -29 -3 -27 -7 2 -4 0 -9 -5 -12 -5 -4 -7 -18 -5 -32 4 -24 3
-25 -11 -11 -8 9 -15 20 -15 26 0 15 -39 34 -56 27 -18 -7 -24 -7 -24 -1 1 16
-27 32 -41 24 -24 -12 -59 1 -59 23 0 10 5 16 10 13 6 -3 10 -1 10 4 0 6 -11
11 -25 11 -15 0 -25 -6 -25 -14 0 -25 -18 -27 -39 -5 -19 20 -21 21 -27 5 -5
-14 -9 -15 -15 -5 -6 11 -14 8 -33 -10 -15 -14 -29 -20 -38 -15 -10 6 -10 4 1
-9 9 -12 10 -17 2 -17 -6 0 -14 7 -17 15 -7 18 -50 20 -58 3 -3 -9 -8 -8 -16
5 -14 22 -76 16 -95 -10 -7 -10 -17 -15 -20 -11 -4 4 -16 -3 -27 -15 -11 -12
-17 -17 -14 -11 3 7 -1 15 -10 18 -8 3 -12 10 -9 16 13 20 -6 28 -33 14 -15
-7 -32 -14 -38 -14 -6 0 -17 -7 -24 -15 -7 -8 -16 -13 -20 -10 -5 3 -15 -3
-22 -12 -14 -19 -64 -51 -54 -34 4 5 1 13 -5 16 -5 4 -8 13 -5 21 8 20 -10 27
-35 13 -16 -8 -23 -8 -29 1 -11 18 -23 -6 -15 -31 5 -13 3 -19 -3 -15 -5 3
-12 -1 -16 -9 -3 -8 -14 -15 -25 -15 -22 0 -37 -16 -20 -22 5 -2 7 -11 3 -21
-5 -15 -9 -16 -23 -4 -19 15 -41 17 -42 2 0 -5 10 -12 22 -15 20 -5 20 -7 5
-19 -9 -7 -16 -9 -16 -4 0 5 -14 9 -30 8 -31 -2 -63 -32 -52 -49 3 -5 9 0 13
11 8 21 39 40 39 23 0 -5 -11 -21 -25 -36 -14 -15 -23 -29 -20 -32 8 -8 -28
-31 -50 -32 -16 0 -17 -2 -5 -10 9 -5 19 -5 27 2 9 7 15 6 19 -7 7 -17 8 -17
22 1 13 18 14 18 8 -3 -5 -16 -2 -22 11 -25 14 -3 11 -10 -20 -37 -20 -19 -47
-39 -59 -46 -18 -8 -23 -19 -21 -44 1 -22 -6 -40 -20 -54 -17 -17 -19 -18 -14
-3 6 14 3 17 -8 12 -9 -3 -13 -2 -10 3 10 17 -12 21 -25 6 -7 -8 -17 -15 -23
-15 -7 0 -7 4 1 12 15 15 16 32 2 23 -5 -3 -10 -1 -10 5 0 6 -4 9 -10 5 -5 -3
-7 -12 -4 -19 3 -7 -1 -16 -9 -19 -10 -4 -14 2 -14 21 1 30 -19 72 -33 72 -5
0 -11 -8 -15 -18 -6 -19 -53 -47 -63 -37 -3 3 0 5 6 5 7 0 12 4 12 9 0 4 -19
5 -42 0 -58 -11 -68 -11 -68 2 0 6 9 9 20 6 11 -3 20 -1 20 3 0 5 10 12 22 16
12 3 29 16 39 27 15 19 19 20 35 7 17 -13 17 -12 -1 10 -11 14 -24 28 -30 32
-5 4 -1 15 9 27 24 26 7 27 -25 3 -28 -22 -69 -34 -69 -21 0 5 5 9 11 9 6 0 9
10 7 23 -4 23 -8 24 -46 12 -15 -4 -24 -2 -28 9 -8 21 29 58 49 50 10 -4 17
-1 17 6 0 19 -62 4 -82 -20 -9 -11 -18 -24 -20 -29 -2 -4 -15 -11 -29 -14 -19
-5 -26 -3 -26 8 0 10 6 13 19 9 12 -3 18 0 18 10 0 9 7 16 15 16 12 0 14 7 9
28 -7 24 -6 26 9 14 21 -17 40 -6 32 19 -5 14 -2 17 8 13 17 -6 29 19 21 41
-9 23 -23 18 -16 -7 4 -17 2 -20 -13 -15 -14 6 -17 3 -13 -18 3 -14 1 -28 -3
-31 -5 -3 -9 2 -9 10 0 11 -10 16 -27 17 -26 0 -26 1 -7 9 12 4 24 15 27 23 9
23 -21 29 -50 10 l-26 -17 7 29 c4 16 13 33 19 37 9 6 8 8 -2 8 -7 0 -11 6 -8
14 8 20 -4 28 -22 14 -13 -10 -14 -10 -3 2 6 8 12 27 12 42 0 18 5 28 14 28
18 0 30 33 21 60 -3 11 -2 20 3 20 5 0 12 14 16 30 3 18 12 30 21 30 12 0 15
6 10 19 -6 20 8 23 31 8 15 -9 24 36 11 58 -6 12 -6 16 1 11 6 -3 14 -1 18 5
5 8 20 -3 44 -31 35 -41 38 -43 54 -27z m1960 6 c9 -14 21 -19 31 -15 11 4 24
-2 37 -19 16 -21 66 -55 88 -60 37 -10 54 -35 24 -35 -10 0 -14 -6 -10 -15 3
-10 -3 -17 -19 -21 -31 -8 -45 2 -45 32 0 28 -16 33 -23 7 -3 -11 -5 -7 -6 10
-1 16 -5 26 -11 22 -6 -4 -8 -10 -5 -15 3 -5 1 -11 -5 -15 -5 -3 -10 -2 -10 4
0 6 -7 8 -15 5 -12 -5 -13 -10 -4 -20 6 -7 14 -13 17 -12 4 0 14 0 22 -1 12
-1 12 -3 -2 -12 -12 -7 -24 -6 -38 3 -17 11 -22 11 -30 -2 -9 -14 -15 -7 -11
14 1 5 -5 16 -14 26 -11 12 -13 20 -6 25 6 3 11 -2 11 -12 0 -15 2 -15 9 -3 6
8 7 19 3 25 -3 5 -5 20 -3 33 1 14 -5 29 -15 36 -9 7 -14 18 -10 24 11 18 23
15 40 -9z m-69 -217 c17 0 40 9 53 21 l22 20 0 -21 c0 -12 -5 -22 -11 -22 -6
0 -3 -7 5 -16 17 -17 21 -28 7 -20 -13 9 -22 -36 -9 -51 6 -7 18 -13 27 -13
11 0 7 -6 -11 -18 -20 -13 -25 -21 -17 -29 7 -7 3 -9 -15 -6 -25 5 -34 17 -18
26 4 2 2 3 -5 1 -6 -1 -19 4 -30 11 -15 13 -16 16 -3 24 8 6 11 13 7 18 -5 4
-12 1 -16 -6 -11 -17 -34 -4 -27 16 3 8 -3 32 -14 53 -26 51 -25 58 3 33 12
-12 36 -21 52 -21z m995 -194 c0 -5 9 -7 19 -3 15 4 25 -1 38 -21 13 -21 14
-29 5 -32 -9 -3 -10 -8 -3 -16 12 -15 -3 -41 -18 -32 -6 4 -11 16 -11 27 0 10
-4 19 -10 19 -5 0 -7 6 -4 13 6 16 -23 43 -34 32 -4 -4 -2 -10 5 -12 9 -3 9
-12 3 -29 -9 -22 -6 -29 22 -52 17 -15 37 -27 42 -27 6 -1 9 -7 7 -15 -2 -8
-4 -39 -5 -69 -1 -34 -6 -56 -14 -58 -7 -3 -10 1 -6 11 10 27 -12 18 -24 -10
-13 -28 -32 -24 -32 7 0 13 -7 19 -22 19 l-22 0 22 16 c26 18 29 49 5 58 -18
7 -33 -9 -33 -38 0 -12 -5 -16 -15 -12 -10 3 -15 -1 -15 -13 0 -10 -7 -22 -16
-25 -10 -4 -14 -12 -9 -24 5 -13 3 -14 -5 -6 -9 9 -8 19 3 40 13 25 13 30 -2
42 -14 12 -14 12 7 7 18 -5 22 -2 22 14 0 12 5 21 10 21 6 0 10 5 10 10 0 6
-6 10 -12 10 -17 0 -17 58 0 88 7 12 19 22 28 22 12 0 12 4 4 20 -16 29 7 51
37 37 13 -6 23 -14 23 -19z m-3954 -623 c4 -8 15 -15 26 -15 11 0 16 -5 13
-10 -4 -6 -1 -17 5 -25 14 -16 -4 -85 -22 -85 -6 0 -8 7 -5 15 4 8 2 17 -3 20
-6 4 -10 15 -10 26 0 14 -7 19 -30 19 -17 0 -30 -5 -30 -12 0 -9 -4 -8 -11 2
-7 11 -12 12 -15 3 -3 -7 -13 -10 -22 -7 -15 5 -15 4 1 -9 17 -14 18 -51 2
-77 -11 -17 -59 -7 -85 18 l-25 24 31 -16 c31 -15 32 -15 27 4 -6 23 0 25 28
10 13 -7 19 -7 19 0 0 5 -6 10 -14 10 -8 0 -20 16 -27 35 -7 19 -17 35 -21 35
-14 0 -9 18 7 24 8 3 14 0 12 -7 -1 -7 4 -11 11 -9 6 1 12 -5 12 -13 0 -8 9
-15 20 -15 25 0 27 17 3 22 -11 2 -14 6 -7 10 6 4 21 -2 33 -14 21 -19 23 -19
21 -2 -4 33 0 42 18 47 30 8 32 7 38 -8z"/>
<path d="M4085 5566 c-93 -26 -134 -44 -148 -68 -15 -23 6 -45 54 -58 22 -6
44 -20 51 -33 8 -15 13 -118 16 -346 5 -380 0 -423 -53 -448 -39 -19 -49 -37
-35 -64 15 -27 50 -34 185 -34 100 0 126 3 149 18 38 25 31 55 -19 81 -29 15
-42 29 -46 51 -10 45 -10 243 -1 249 5 3 22 -9 39 -27 31 -33 176 -214 205
-256 10 -14 35 -43 58 -67 47 -49 87 -60 184 -49 69 7 95 22 98 56 3 21 -6 28
-63 55 -50 24 -80 49 -130 105 -71 81 -164 197 -193 243 l-19 29 69 67 c57 56
81 71 137 89 66 22 68 24 65 55 -3 26 -9 33 -43 44 -52 18 -221 12 -252 -8
-30 -20 -29 -55 2 -76 14 -9 25 -22 25 -29 0 -18 -160 -167 -174 -162 -8 3
-11 87 -11 289 0 304 -2 319 -49 317 -11 0 -57 -10 -101 -23z"/>
<path d="M4946 5530 c-42 -38 -51 -70 -31 -111 34 -64 136 -74 195 -19 48 45
39 114 -20 145 -49 25 -104 19 -144 -15z"/>
<path d="M6775 5283 l-49 -26 -121 16 c-127 17 -147 16 -235 -11 -81 -25 -162
-107 -185 -186 -12 -41 -15 -74 -11 -110 7 -51 41 -121 71 -146 13 -11 11 -16
-24 -41 -40 -30 -71 -81 -71 -119 0 -23 36 -90 48 -90 4 0 13 -4 21 -9 10 -7
3 -19 -33 -53 -40 -39 -46 -50 -46 -87 0 -104 84 -170 250 -198 80 -14 100
-14 179 0 117 19 194 55 253 118 80 85 90 201 24 264 -54 51 -95 58 -300 50
-191 -7 -226 -3 -246 34 -15 29 14 86 38 75 9 -4 57 -9 105 -12 161 -9 273 42
332 149 24 45 29 66 30 125 0 44 -6 81 -15 98 -13 26 -13 29 5 39 54 30 88 94
68 126 -15 24 -33 22 -88 -6z m-206 -121 c39 -28 60 -79 61 -145 0 -100 -46
-158 -133 -165 -46 -4 -57 -1 -84 22 -121 102 -55 330 91 312 22 -2 51 -13 65
-24z m135 -663 c60 -47 17 -129 -86 -164 -113 -39 -269 -11 -302 54 -20 38
-20 54 -1 91 l15 29 118 4 c64 1 142 4 173 5 44 2 62 -3 83 -19z"/>
<path d="M2739 5281 c-25 -4 -75 -21 -112 -39 -114 -57 -189 -166 -206 -303
-16 -125 15 -232 91 -315 84 -92 176 -129 297 -122 88 5 149 29 228 89 123 92
97 194 -27 105 -50 -36 -124 -66 -164 -66 -53 0 -123 31 -164 72 -44 44 -76
118 -70 165 l3 28 240 5 c132 3 246 9 253 13 8 5 12 34 12 81 0 163 -107 275
-275 289 -33 2 -81 2 -106 -2z m132 -117 c45 -23 81 -84 77 -130 l-3 -39 -160
0 -160 0 -3 24 c-5 30 23 104 48 126 49 44 137 53 201 19z"/>
<path d="M3473 5279 c-135 -13 -238 -88 -231 -168 4 -43 41 -73 80 -64 15 3
56 33 91 68 70 69 112 85 173 65 46 -15 66 -56 67 -139 l2 -66 -40 5 c-72 9
-195 2 -252 -15 -42 -13 -68 -29 -108 -69 -46 -46 -53 -59 -63 -112 -30 -174
77 -293 256 -282 54 3 84 11 132 36 35 17 66 32 70 32 5 0 24 -16 44 -36 36
-36 38 -37 96 -31 69 6 127 37 136 73 7 28 -10 54 -35 54 -10 0 -26 6 -37 14
-18 13 -19 32 -25 253 -4 192 -8 244 -21 268 -50 93 -162 131 -335 114z m177
-408 c3 -3 3 -47 0 -98 -4 -75 -9 -96 -27 -117 -30 -34 -99 -44 -158 -21 -60
22 -85 56 -85 112 0 76 31 114 111 133 35 9 150 2 159 -9z"/>
<path d="M5034 5275 c-80 -17 -174 -56 -188 -77 -15 -24 2 -49 42 -62 56 -20
57 -21 60 -233 4 -245 2 -256 -48 -288 -47 -30 -51 -57 -13 -82 36 -24 264
-26 307 -4 40 22 32 60 -16 84 -30 15 -39 26 -44 54 -4 20 -5 156 -2 302 3
146 2 275 -3 287 -11 30 -26 33 -95 19z"/>
<path d="M5709 5276 c-47 -12 -91 -39 -123 -75 -27 -30 -36 -26 -36 13 0 56
-8 66 -51 66 -51 0 -195 -46 -220 -71 -30 -30 -23 -47 28 -71 32 -16 50 -31
54 -48 4 -14 7 -113 8 -220 1 -213 -3 -232 -54 -260 -37 -20 -43 -50 -15 -75
19 -17 37 -20 158 -20 156 0 185 9 180 53 -2 20 -13 32 -40 44 -48 23 -51 42
-46 240 3 123 7 160 22 191 55 113 200 128 249 25 20 -41 34 -280 23 -371 -7
-51 -11 -61 -39 -77 -65 -38 -73 -59 -33 -86 20 -12 52 -15 161 -15 135 1 167
7 179 36 9 24 -1 38 -42 60 l-37 20 -6 220 c-7 234 -15 276 -63 340 -52 68
-170 105 -257 81z"/>
<path d="M7747 4979 c-9 -10 -24 -19 -32 -19 -8 0 -15 -7 -15 -16 0 -8 -5 -12
-10 -9 -6 4 -8 10 -5 15 3 4 -7 3 -21 -3 -23 -11 -25 -16 -20 -51 2 -23 15
-49 28 -63 21 -20 28 -22 51 -14 21 8 28 7 35 -6 8 -14 11 -13 22 6 15 29 21
99 9 106 -5 4 -9 19 -9 35 0 37 -12 44 -33 19z"/>
<path d="M4931 3644 c-30 -8 -73 -23 -96 -33 -67 -30 -71 -80 -7 -96 52 -13
62 -31 62 -117 0 -43 -2 -78 -3 -78 -2 0 -30 9 -62 20 -154 53 -327 -3 -408
-132 -59 -95 -72 -141 -72 -263 1 -103 3 -114 33 -177 58 -119 162 -188 282
-188 59 0 127 27 189 74 19 14 39 26 43 26 4 0 8 -17 8 -39 0 -51 18 -65 73
-58 55 8 149 39 182 61 39 26 30 55 -25 75 -37 14 -45 22 -52 51 -4 19 -7 223
-6 453 1 350 -1 420 -13 428 -20 12 -65 10 -128 -7z m-133 -404 c23 -10 53
-31 67 -46 25 -26 25 -30 25 -193 0 -187 -8 -218 -69 -258 -40 -27 -117 -31
-160 -9 -46 24 -89 82 -107 143 -23 80 -16 237 14 284 57 93 138 121 230 79z"/>
</g>
</svg>
